<svg width="16" height="18" viewBox="0 0 16 18" fill="none" xmlns="http://www.w3.org/2000/svg">
<path d="M3.75 5.34934V4.95934C3.75 3.34984 3.75 2.54509 4.2675 2.09659C4.785 1.64809 5.58075 1.76209 7.1745 1.98934L10.386 2.44834C12.2288 2.71159 13.1498 2.84284 13.6995 3.47734C14.2493 4.11184 14.25 5.04259 14.25 6.90334V11.0973C14.25 12.9581 14.25 13.8888 13.6995 14.5233C13.1498 15.1578 12.2288 15.2891 10.3868 15.5523L7.1745 16.0113C5.58075 16.2386 4.78425 16.3526 4.2675 15.9041C3.75075 15.4556 3.75 14.6508 3.75 13.0413V12.7998" stroke="white" stroke-width="2"/>
<path d="M10.5 9L11.085 8.53125L11.46 9L11.085 9.46875L10.5 9ZM1.5 9.75C1.30109 9.75 1.11032 9.67098 0.96967 9.53033C0.829018 9.38968 0.75 9.19891 0.75 9C0.75 8.80109 0.829018 8.61032 0.96967 8.46967C1.11032 8.32902 1.30109 8.25 1.5 8.25V9.75ZM8.085 4.78125L11.085 8.53125L9.915 9.46875L6.915 5.71875L8.085 4.78125ZM11.085 9.46875L8.085 13.2188L6.915 12.2812L9.915 8.53125L11.085 9.46875ZM10.5 9.75H1.5V8.25H10.5V9.75Z" fill="white"/>
</svg>
