<svg width="390" height="161" viewBox="0 0 390 161" fill="none" xmlns="http://www.w3.org/2000/svg">
<rect width="390" height="161" rx="10" fill="#222224"/>
<rect x="0.5" y="0.5" width="389" height="160" rx="9.5" stroke="#F3F3F3" stroke-opacity="0.05"/>
<path fill-rule="evenodd" clip-rule="evenodd" d="M185.142 50.7041C191.702 50.1338 198.3 50.1338 204.86 50.7041L208.006 50.9791C209.469 51.1064 210.846 51.7223 211.916 52.7276C212.986 53.7329 213.686 55.069 213.904 56.5208C214.849 62.8049 214.849 69.195 213.904 75.4791C213.821 76.0291 213.671 76.5562 213.463 77.0499C213.325 77.377 212.9 77.427 212.658 77.1645L203.448 67.0312C203.244 66.8072 202.98 66.6471 202.687 66.5706C202.394 66.494 202.085 66.5042 201.798 66.5999L196.525 68.3583L188.877 59.7541C188.736 59.5949 188.563 59.4664 188.37 59.3763C188.177 59.2862 187.968 59.2365 187.755 59.2303C187.542 59.224 187.33 59.2614 187.132 59.34C186.934 59.4186 186.755 59.5368 186.604 59.6874L176.367 69.9249C176.297 69.9964 176.208 70.046 176.111 70.0678C176.014 70.0895 175.912 70.0823 175.819 70.0471C175.725 70.012 175.644 69.9503 175.585 69.8698C175.527 69.7892 175.493 69.6933 175.488 69.5937C175.241 65.226 175.445 60.8446 176.096 56.5187C176.314 55.0669 177.014 53.7308 178.084 52.7255C179.154 51.7202 180.531 51.1043 181.994 50.977L185.142 50.7041ZM199.167 59.7499C199.167 58.9211 199.496 58.1263 200.082 57.5402C200.668 56.9542 201.463 56.6249 202.292 56.6249C203.12 56.6249 203.915 56.9542 204.501 57.5402C205.087 58.1263 205.417 58.9211 205.417 59.7499C205.417 60.5787 205.087 61.3736 204.501 61.9596C203.915 62.5457 203.12 62.8749 202.292 62.8749C201.463 62.8749 200.668 62.5457 200.082 61.9596C199.496 61.3736 199.167 60.5787 199.167 59.7499Z" fill="#F3F3F3" fill-opacity="0.1"/>
<path d="M176.169 74.5418C176.112 74.5985 176.07 74.6675 176.045 74.7434C176.019 74.8193 176.012 74.9 176.023 74.9793L176.096 75.4793C176.314 76.931 177.014 78.2672 178.084 79.2724C179.154 80.2777 180.531 80.8936 181.994 81.0209L185.14 81.2938C191.702 81.8647 198.298 81.8647 204.86 81.2938L208.006 81.0209C208.869 80.9463 209.708 80.7005 210.475 80.298C210.76 80.1501 210.808 79.773 210.592 79.5355L202.05 70.1397C201.982 70.0643 201.894 70.0103 201.796 69.9844C201.698 69.9585 201.594 69.9618 201.498 69.9938L196.535 71.648C196.245 71.7449 195.933 71.7545 195.638 71.6756C195.342 71.5967 195.076 71.4328 194.873 71.2043L188.008 63.4814C187.961 63.4283 187.903 63.3854 187.839 63.3555C187.775 63.3255 187.705 63.309 187.634 63.3071C187.563 63.3051 187.492 63.3177 187.426 63.3441C187.36 63.3705 187.3 63.4101 187.25 63.4605L176.169 74.5418Z" fill="#F3F3F3" fill-opacity="0.1"/>
<path d="M130.444 115.264C130.86 115.264 131.231 115.195 131.556 115.056C131.887 114.917 132.164 114.723 132.388 114.472C132.612 114.221 132.783 113.917 132.9 113.56C133.023 113.203 133.084 112.803 133.084 112.36V105.432H135.236V112.36C135.236 113.048 135.124 113.685 134.9 114.272C134.681 114.853 134.364 115.357 133.948 115.784C133.537 116.205 133.036 116.536 132.444 116.776C131.852 117.011 131.185 117.128 130.444 117.128C129.697 117.128 129.028 117.011 128.436 116.776C127.844 116.536 127.34 116.205 126.924 115.784C126.513 115.357 126.196 114.853 125.972 114.272C125.753 113.685 125.644 113.048 125.644 112.36V105.432H127.796V112.352C127.796 112.795 127.855 113.195 127.972 113.552C128.095 113.909 128.268 114.216 128.492 114.472C128.721 114.723 128.999 114.917 129.324 115.056C129.655 115.195 130.028 115.264 130.444 115.264ZM138.261 114.872C138.485 115.144 138.728 115.336 138.989 115.448C139.256 115.56 139.544 115.616 139.853 115.616C140.152 115.616 140.421 115.56 140.661 115.448C140.901 115.336 141.104 115.165 141.269 114.936C141.44 114.707 141.571 114.419 141.661 114.072C141.752 113.72 141.797 113.307 141.797 112.832C141.797 112.352 141.757 111.947 141.677 111.616C141.603 111.28 141.493 111.008 141.349 110.8C141.205 110.592 141.029 110.44 140.821 110.344C140.619 110.248 140.387 110.2 140.125 110.2C139.715 110.2 139.365 110.288 139.077 110.464C138.789 110.635 138.517 110.877 138.261 111.192V114.872ZM138.157 109.912C138.493 109.533 138.875 109.227 139.301 108.992C139.728 108.757 140.229 108.64 140.805 108.64C141.253 108.64 141.661 108.733 142.029 108.92C142.403 109.107 142.723 109.379 142.989 109.736C143.261 110.088 143.469 110.525 143.613 111.048C143.763 111.565 143.837 112.16 143.837 112.832C143.837 113.445 143.755 114.013 143.589 114.536C143.424 115.059 143.187 115.512 142.877 115.896C142.573 116.28 142.203 116.581 141.765 116.8C141.333 117.013 140.848 117.12 140.309 117.12C139.851 117.12 139.459 117.051 139.133 116.912C138.808 116.768 138.517 116.571 138.261 116.32V119.68H136.285V108.792H137.493C137.749 108.792 137.917 108.912 137.997 109.152L138.157 109.912ZM146.579 105.112V117H144.603V105.112H146.579ZM151.38 108.664C151.988 108.664 152.54 108.763 153.036 108.96C153.537 109.157 153.964 109.437 154.316 109.8C154.673 110.163 154.948 110.605 155.14 111.128C155.332 111.651 155.428 112.235 155.428 112.88C155.428 113.531 155.332 114.117 155.14 114.64C154.948 115.163 154.673 115.608 154.316 115.976C153.964 116.344 153.537 116.627 153.036 116.824C152.54 117.021 151.988 117.12 151.38 117.12C150.767 117.12 150.209 117.021 149.708 116.824C149.207 116.627 148.777 116.344 148.42 115.976C148.068 115.608 147.793 115.163 147.596 114.64C147.404 114.117 147.308 113.531 147.308 112.88C147.308 112.235 147.404 111.651 147.596 111.128C147.793 110.605 148.068 110.163 148.42 109.8C148.777 109.437 149.207 109.157 149.708 108.96C150.209 108.763 150.767 108.664 151.38 108.664ZM151.38 115.6C152.063 115.6 152.567 115.371 152.892 114.912C153.223 114.453 153.388 113.781 153.388 112.896C153.388 112.011 153.223 111.336 152.892 110.872C152.567 110.408 152.063 110.176 151.38 110.176C150.687 110.176 150.172 110.411 149.836 110.88C149.505 111.344 149.34 112.016 149.34 112.896C149.34 113.776 149.505 114.448 149.836 114.912C150.172 115.371 150.687 115.6 151.38 115.6ZM160.471 113.496C159.901 113.523 159.421 113.573 159.031 113.648C158.642 113.717 158.33 113.808 158.095 113.92C157.861 114.032 157.693 114.163 157.591 114.312C157.49 114.461 157.439 114.624 157.439 114.8C157.439 115.147 157.541 115.395 157.743 115.544C157.951 115.693 158.221 115.768 158.551 115.768C158.957 115.768 159.306 115.696 159.599 115.552C159.898 115.403 160.189 115.179 160.471 114.88V113.496ZM155.943 109.936C156.887 109.072 158.023 108.64 159.351 108.64C159.831 108.64 160.261 108.72 160.639 108.88C161.018 109.035 161.338 109.253 161.599 109.536C161.861 109.813 162.058 110.147 162.191 110.536C162.33 110.925 162.399 111.352 162.399 111.816V117H161.503C161.317 117 161.173 116.973 161.071 116.92C160.97 116.861 160.89 116.747 160.831 116.576L160.655 115.984C160.447 116.171 160.245 116.336 160.047 116.48C159.85 116.619 159.645 116.736 159.431 116.832C159.218 116.928 158.989 117 158.743 117.048C158.503 117.101 158.237 117.128 157.943 117.128C157.597 117.128 157.277 117.083 156.983 116.992C156.69 116.896 156.437 116.755 156.223 116.568C156.01 116.381 155.845 116.149 155.727 115.872C155.61 115.595 155.551 115.272 155.551 114.904C155.551 114.696 155.586 114.491 155.655 114.288C155.725 114.08 155.837 113.883 155.991 113.696C156.151 113.509 156.357 113.333 156.607 113.168C156.858 113.003 157.165 112.859 157.527 112.736C157.895 112.613 158.322 112.515 158.807 112.44C159.293 112.36 159.847 112.312 160.471 112.296V111.816C160.471 111.267 160.354 110.861 160.119 110.6C159.885 110.333 159.546 110.2 159.103 110.2C158.783 110.2 158.517 110.237 158.303 110.312C158.095 110.387 157.911 110.472 157.751 110.568C157.591 110.659 157.445 110.741 157.311 110.816C157.183 110.891 157.039 110.928 156.879 110.928C156.741 110.928 156.623 110.893 156.527 110.824C156.431 110.749 156.354 110.664 156.295 110.568L155.943 109.936ZM168.612 110.888C168.388 110.616 168.143 110.424 167.876 110.312C167.615 110.2 167.332 110.144 167.028 110.144C166.73 110.144 166.46 110.2 166.22 110.312C165.98 110.424 165.775 110.595 165.604 110.824C165.434 111.048 165.303 111.336 165.212 111.688C165.122 112.035 165.076 112.445 165.076 112.92C165.076 113.4 165.114 113.808 165.188 114.144C165.268 114.475 165.38 114.747 165.524 114.96C165.668 115.168 165.844 115.32 166.052 115.416C166.26 115.507 166.492 115.552 166.748 115.552C167.159 115.552 167.508 115.467 167.796 115.296C168.084 115.125 168.356 114.883 168.612 114.568V110.888ZM170.588 105.112V117H169.38C169.119 117 168.954 116.88 168.884 116.64L168.716 115.848C168.386 116.227 168.004 116.533 167.572 116.768C167.146 117.003 166.647 117.12 166.076 117.12C165.628 117.12 165.218 117.027 164.844 116.84C164.471 116.653 164.148 116.384 163.876 116.032C163.61 115.675 163.402 115.235 163.252 114.712C163.108 114.189 163.036 113.592 163.036 112.92C163.036 112.312 163.119 111.747 163.284 111.224C163.45 110.701 163.687 110.248 163.996 109.864C164.306 109.48 164.676 109.181 165.108 108.968C165.54 108.749 166.026 108.64 166.564 108.64C167.023 108.64 167.415 108.712 167.74 108.856C168.066 109 168.356 109.195 168.612 109.44V105.112H170.588ZM179.165 113.496C178.594 113.523 178.114 113.573 177.725 113.648C177.336 113.717 177.024 113.808 176.789 113.92C176.554 114.032 176.386 114.163 176.285 114.312C176.184 114.461 176.133 114.624 176.133 114.8C176.133 115.147 176.234 115.395 176.437 115.544C176.645 115.693 176.914 115.768 177.245 115.768C177.65 115.768 178 115.696 178.293 115.552C178.592 115.403 178.882 115.179 179.165 114.88V113.496ZM174.637 109.936C175.581 109.072 176.717 108.64 178.045 108.64C178.525 108.64 178.954 108.72 179.333 108.88C179.712 109.035 180.032 109.253 180.293 109.536C180.554 109.813 180.752 110.147 180.885 110.536C181.024 110.925 181.093 111.352 181.093 111.816V117H180.197C180.01 117 179.866 116.973 179.765 116.92C179.664 116.861 179.584 116.747 179.525 116.576L179.349 115.984C179.141 116.171 178.938 116.336 178.741 116.48C178.544 116.619 178.338 116.736 178.125 116.832C177.912 116.928 177.682 117 177.437 117.048C177.197 117.101 176.93 117.128 176.637 117.128C176.29 117.128 175.97 117.083 175.677 116.992C175.384 116.896 175.13 116.755 174.917 116.568C174.704 116.381 174.538 116.149 174.421 115.872C174.304 115.595 174.245 115.272 174.245 114.904C174.245 114.696 174.28 114.491 174.349 114.288C174.418 114.08 174.53 113.883 174.685 113.696C174.845 113.509 175.05 113.333 175.301 113.168C175.552 113.003 175.858 112.859 176.221 112.736C176.589 112.613 177.016 112.515 177.501 112.44C177.986 112.36 178.541 112.312 179.165 112.296V111.816C179.165 111.267 179.048 110.861 178.813 110.6C178.578 110.333 178.24 110.2 177.797 110.2C177.477 110.2 177.21 110.237 176.997 110.312C176.789 110.387 176.605 110.472 176.445 110.568C176.285 110.659 176.138 110.741 176.005 110.816C175.877 110.891 175.733 110.928 175.573 110.928C175.434 110.928 175.317 110.893 175.221 110.824C175.125 110.749 175.048 110.664 174.989 110.568L174.637 109.936ZM193.501 114.272C193.618 114.272 193.722 114.317 193.813 114.408L194.661 115.328C194.191 115.909 193.613 116.355 192.925 116.664C192.242 116.973 191.421 117.128 190.461 117.128C189.602 117.128 188.829 116.981 188.141 116.688C187.458 116.395 186.874 115.987 186.389 115.464C185.903 114.941 185.53 114.317 185.269 113.592C185.013 112.867 184.885 112.075 184.885 111.216C184.885 110.347 185.023 109.552 185.301 108.832C185.578 108.107 185.967 107.483 186.469 106.96C186.975 106.437 187.578 106.032 188.277 105.744C188.975 105.451 189.749 105.304 190.597 105.304C191.439 105.304 192.186 105.443 192.837 105.72C193.493 105.997 194.05 106.36 194.509 106.808L193.789 107.808C193.746 107.872 193.69 107.928 193.621 107.976C193.557 108.024 193.466 108.048 193.349 108.048C193.269 108.048 193.186 108.027 193.101 107.984C193.015 107.936 192.922 107.88 192.821 107.816C192.719 107.747 192.602 107.672 192.469 107.592C192.335 107.512 192.181 107.44 192.005 107.376C191.829 107.307 191.623 107.251 191.389 107.208C191.159 107.16 190.893 107.136 190.589 107.136C190.071 107.136 189.597 107.229 189.165 107.416C188.738 107.597 188.37 107.864 188.061 108.216C187.751 108.563 187.511 108.989 187.341 109.496C187.17 109.997 187.085 110.571 187.085 111.216C187.085 111.867 187.175 112.445 187.357 112.952C187.543 113.459 187.794 113.885 188.109 114.232C188.423 114.579 188.794 114.845 189.221 115.032C189.647 115.213 190.106 115.304 190.597 115.304C190.89 115.304 191.154 115.288 191.389 115.256C191.629 115.224 191.847 115.173 192.045 115.104C192.247 115.035 192.437 114.947 192.613 114.84C192.794 114.728 192.973 114.592 193.149 114.432C193.202 114.384 193.258 114.347 193.317 114.32C193.375 114.288 193.437 114.272 193.501 114.272ZM198.483 108.664C199.091 108.664 199.643 108.763 200.139 108.96C200.64 109.157 201.067 109.437 201.419 109.8C201.776 110.163 202.051 110.605 202.243 111.128C202.435 111.651 202.531 112.235 202.531 112.88C202.531 113.531 202.435 114.117 202.243 114.64C202.051 115.163 201.776 115.608 201.419 115.976C201.067 116.344 200.64 116.627 200.139 116.824C199.643 117.021 199.091 117.12 198.483 117.12C197.87 117.12 197.312 117.021 196.811 116.824C196.31 116.627 195.88 116.344 195.523 115.976C195.171 115.608 194.896 115.163 194.699 114.64C194.507 114.117 194.411 113.531 194.411 112.88C194.411 112.235 194.507 111.651 194.699 111.128C194.896 110.605 195.171 110.163 195.523 109.8C195.88 109.437 196.31 109.157 196.811 108.96C197.312 108.763 197.87 108.664 198.483 108.664ZM198.483 115.6C199.166 115.6 199.67 115.371 199.995 114.912C200.326 114.453 200.491 113.781 200.491 112.896C200.491 112.011 200.326 111.336 199.995 110.872C199.67 110.408 199.166 110.176 198.483 110.176C197.79 110.176 197.275 110.411 196.939 110.88C196.608 111.344 196.443 112.016 196.443 112.896C196.443 113.776 196.608 114.448 196.939 114.912C197.275 115.371 197.79 115.6 198.483 115.6ZM210.388 108.792L207.132 117H205.34L202.084 108.792H203.716C203.866 108.792 203.988 108.827 204.084 108.896C204.186 108.965 204.252 109.053 204.284 109.16L205.868 113.544C205.954 113.8 206.028 114.051 206.092 114.296C206.156 114.541 206.212 114.787 206.26 115.032C206.314 114.787 206.372 114.541 206.436 114.296C206.5 114.051 206.578 113.8 206.668 113.544L208.284 109.16C208.322 109.053 208.388 108.965 208.484 108.896C208.58 108.827 208.695 108.792 208.828 108.792H210.388ZM215.68 111.952C215.68 111.696 215.642 111.456 215.568 111.232C215.498 111.003 215.392 110.803 215.248 110.632C215.104 110.461 214.92 110.328 214.696 110.232C214.477 110.131 214.221 110.08 213.928 110.08C213.357 110.08 212.906 110.243 212.576 110.568C212.25 110.893 212.042 111.355 211.952 111.952H215.68ZM211.912 113.144C211.944 113.565 212.018 113.931 212.136 114.24C212.253 114.544 212.408 114.797 212.6 115C212.792 115.197 213.018 115.347 213.28 115.448C213.546 115.544 213.84 115.592 214.16 115.592C214.48 115.592 214.754 115.555 214.984 115.48C215.218 115.405 215.421 115.323 215.592 115.232C215.768 115.141 215.92 115.059 216.048 114.984C216.181 114.909 216.309 114.872 216.432 114.872C216.597 114.872 216.72 114.933 216.8 115.056L217.368 115.776C217.149 116.032 216.904 116.248 216.632 116.424C216.36 116.595 216.074 116.733 215.776 116.84C215.482 116.941 215.181 117.013 214.872 117.056C214.568 117.099 214.272 117.12 213.984 117.12C213.413 117.12 212.882 117.027 212.392 116.84C211.901 116.648 211.474 116.368 211.112 116C210.749 115.627 210.464 115.168 210.256 114.624C210.048 114.075 209.944 113.44 209.944 112.72C209.944 112.16 210.034 111.635 210.216 111.144C210.397 110.648 210.656 110.219 210.992 109.856C211.333 109.488 211.746 109.197 212.232 108.984C212.722 108.771 213.274 108.664 213.888 108.664C214.405 108.664 214.882 108.747 215.32 108.912C215.757 109.077 216.133 109.32 216.448 109.64C216.762 109.955 217.008 110.344 217.184 110.808C217.365 111.267 217.456 111.792 217.456 112.384C217.456 112.683 217.424 112.885 217.36 112.992C217.296 113.093 217.173 113.144 216.992 113.144H211.912ZM220.002 110.216C220.258 109.725 220.562 109.341 220.914 109.064C221.266 108.781 221.682 108.64 222.162 108.64C222.541 108.64 222.845 108.723 223.074 108.888L222.946 110.368C222.92 110.464 222.88 110.533 222.826 110.576C222.778 110.613 222.712 110.632 222.626 110.632C222.546 110.632 222.426 110.619 222.266 110.592C222.112 110.565 221.96 110.552 221.81 110.552C221.592 110.552 221.397 110.584 221.226 110.648C221.056 110.712 220.901 110.805 220.762 110.928C220.629 111.045 220.509 111.189 220.402 111.36C220.301 111.531 220.205 111.725 220.114 111.944V117H218.138V108.792H219.298C219.501 108.792 219.642 108.829 219.722 108.904C219.802 108.973 219.856 109.101 219.882 109.288L220.002 110.216ZM230.126 111.248C230.521 111.248 230.865 111.2 231.158 111.104C231.451 111.003 231.694 110.861 231.886 110.68C232.083 110.493 232.23 110.269 232.326 110.008C232.422 109.741 232.47 109.445 232.47 109.12C232.47 108.811 232.422 108.531 232.326 108.28C232.23 108.029 232.086 107.816 231.894 107.64C231.702 107.464 231.459 107.331 231.166 107.24C230.873 107.144 230.526 107.096 230.126 107.096H228.518V111.248H230.126ZM230.126 105.432C230.899 105.432 231.569 105.523 232.134 105.704C232.699 105.885 233.166 106.139 233.534 106.464C233.902 106.789 234.174 107.179 234.35 107.632C234.531 108.085 234.622 108.581 234.622 109.12C234.622 109.68 234.529 110.195 234.342 110.664C234.155 111.128 233.875 111.528 233.502 111.864C233.129 112.2 232.659 112.461 232.094 112.648C231.534 112.835 230.878 112.928 230.126 112.928H228.518V117H226.366V105.432H230.126ZM237.105 109.672C237.425 109.373 237.777 109.131 238.161 108.944C238.545 108.757 238.996 108.664 239.513 108.664C239.961 108.664 240.358 108.741 240.705 108.896C241.052 109.045 241.34 109.259 241.569 109.536C241.804 109.808 241.98 110.136 242.097 110.52C242.22 110.899 242.281 111.317 242.281 111.776V117H240.305V111.776C240.305 111.275 240.19 110.888 239.961 110.616C239.732 110.339 239.382 110.2 238.913 110.2C238.572 110.2 238.252 110.277 237.953 110.432C237.654 110.587 237.372 110.797 237.105 111.064V117H235.129V105.112H237.105V109.672ZM246.992 108.664C247.6 108.664 248.152 108.763 248.648 108.96C249.15 109.157 249.576 109.437 249.928 109.8C250.286 110.163 250.56 110.605 250.752 111.128C250.944 111.651 251.04 112.235 251.04 112.88C251.04 113.531 250.944 114.117 250.752 114.64C250.56 115.163 250.286 115.608 249.928 115.976C249.576 116.344 249.15 116.627 248.648 116.824C248.152 117.021 247.6 117.12 246.992 117.12C246.379 117.12 245.822 117.021 245.32 116.824C244.819 116.627 244.39 116.344 244.032 115.976C243.68 115.608 243.406 115.163 243.208 114.64C243.016 114.117 242.92 113.531 242.92 112.88C242.92 112.235 243.016 111.651 243.208 111.128C243.406 110.605 243.68 110.163 244.032 109.8C244.39 109.437 244.819 109.157 245.32 108.96C245.822 108.763 246.379 108.664 246.992 108.664ZM246.992 115.6C247.675 115.6 248.179 115.371 248.504 114.912C248.835 114.453 249 113.781 249 112.896C249 112.011 248.835 111.336 248.504 110.872C248.179 110.408 247.675 110.176 246.992 110.176C246.299 110.176 245.784 110.411 245.448 110.88C245.118 111.344 244.952 112.016 244.952 112.896C244.952 113.776 245.118 114.448 245.448 114.912C245.784 115.371 246.299 115.6 246.992 115.6ZM254.328 117.128C253.613 117.128 253.064 116.928 252.68 116.528C252.301 116.123 252.112 115.565 252.112 114.856V110.272H251.272C251.165 110.272 251.074 110.237 251 110.168C250.925 110.099 250.888 109.995 250.888 109.856V109.072L252.208 108.856L252.624 106.616C252.65 106.509 252.701 106.427 252.776 106.368C252.85 106.309 252.946 106.28 253.064 106.28H254.088V108.864H256.28V110.272H254.088V114.72C254.088 114.976 254.149 115.176 254.272 115.32C254.4 115.464 254.573 115.536 254.792 115.536C254.914 115.536 255.016 115.523 255.096 115.496C255.181 115.464 255.253 115.432 255.312 115.4C255.376 115.368 255.432 115.339 255.48 115.312C255.528 115.28 255.576 115.264 255.624 115.264C255.682 115.264 255.73 115.28 255.768 115.312C255.805 115.339 255.845 115.381 255.888 115.44L256.48 116.4C256.192 116.64 255.861 116.821 255.488 116.944C255.114 117.067 254.728 117.128 254.328 117.128ZM260.314 108.664C260.922 108.664 261.474 108.763 261.97 108.96C262.472 109.157 262.898 109.437 263.25 109.8C263.608 110.163 263.882 110.605 264.074 111.128C264.266 111.651 264.362 112.235 264.362 112.88C264.362 113.531 264.266 114.117 264.074 114.64C263.882 115.163 263.608 115.608 263.25 115.976C262.898 116.344 262.472 116.627 261.97 116.824C261.474 117.021 260.922 117.12 260.314 117.12C259.701 117.12 259.144 117.021 258.642 116.824C258.141 116.627 257.712 116.344 257.354 115.976C257.002 115.608 256.728 115.163 256.53 114.64C256.338 114.117 256.242 113.531 256.242 112.88C256.242 112.235 256.338 111.651 256.53 111.128C256.728 110.605 257.002 110.163 257.354 109.8C257.712 109.437 258.141 109.157 258.642 108.96C259.144 108.763 259.701 108.664 260.314 108.664ZM260.314 115.6C260.997 115.6 261.501 115.371 261.826 114.912C262.157 114.453 262.322 113.781 262.322 112.896C262.322 112.011 262.157 111.336 261.826 110.872C261.501 110.408 260.997 110.176 260.314 110.176C259.621 110.176 259.106 110.411 258.77 110.88C258.44 111.344 258.274 112.016 258.274 112.896C258.274 113.776 258.44 114.448 258.77 114.912C259.106 115.371 259.621 115.6 260.314 115.6Z" fill="#767676"/>
</svg>
