<svg width="50" height="50" viewBox="0 0 50 50" fill="none" xmlns="http://www.w3.org/2000/svg">
<path fill-rule="evenodd" clip-rule="evenodd" d="M15.1417 9.70409C21.7022 9.13379 28.2999 9.13379 34.8604 9.70409L38.0063 9.97909C39.4688 10.1064 40.8459 10.7223 41.9158 11.7276C42.9857 12.7329 43.6861 14.069 43.9042 15.5208C44.849 21.8049 44.849 28.195 43.9042 34.4791C43.8209 35.0291 43.6709 35.5562 43.4625 36.0499C43.325 36.377 42.9 36.427 42.6584 36.1645L33.4479 26.0312C33.2443 25.8072 32.9799 25.6471 32.687 25.5706C32.394 25.494 32.0852 25.5042 31.7979 25.5999L26.525 27.3583L18.8771 18.7541C18.7356 18.5949 18.5631 18.4664 18.3702 18.3763C18.1772 18.2862 17.9679 18.2365 17.755 18.2303C17.5422 18.224 17.3303 18.2614 17.1324 18.34C16.9345 18.4186 16.7547 18.5368 16.6042 18.6874L6.36669 28.9249C6.29714 28.9964 6.20824 29.046 6.1109 29.0678C6.01355 29.0895 5.91199 29.0823 5.81866 29.0471C5.72533 29.012 5.64429 28.9503 5.58547 28.8698C5.52665 28.7892 5.49261 28.6933 5.48752 28.5937C5.24117 24.226 5.44502 19.8446 6.09586 15.5187C6.31395 14.0669 7.01434 12.7308 8.08423 11.7255C9.15413 10.7202 10.5312 10.1043 11.9938 9.977L15.1417 9.70409ZM29.1667 18.7499C29.1667 17.9211 29.4959 17.1263 30.082 16.5402C30.668 15.9542 31.4629 15.6249 32.2917 15.6249C33.1205 15.6249 33.9153 15.9542 34.5014 16.5402C35.0874 17.1263 35.4167 17.9211 35.4167 18.7499C35.4167 19.5787 35.0874 20.3736 34.5014 20.9596C33.9153 21.5457 33.1205 21.8749 32.2917 21.8749C31.4629 21.8749 30.668 21.5457 30.082 20.9596C29.4959 20.3736 29.1667 19.5787 29.1667 18.7499Z" fill="#F3F3F3" fill-opacity="0.1"/>
<path d="M6.16877 33.5418C6.11237 33.5985 6.06986 33.6675 6.04456 33.7434C6.01927 33.8193 6.01186 33.9 6.02294 33.9793L6.09585 34.4793C6.31395 35.931 7.01434 37.2672 8.08423 38.2724C9.15412 39.2777 10.5312 39.8936 11.9938 40.0209L15.1396 40.2938C21.7021 40.8647 28.2979 40.8647 34.8604 40.2938L38.0063 40.0209C38.869 39.9463 39.7083 39.7005 40.475 39.298C40.7604 39.1501 40.8083 38.773 40.5917 38.5355L32.05 29.1397C31.9822 29.0643 31.8938 29.0103 31.7957 28.9844C31.6977 28.9585 31.5942 28.9618 31.4979 28.9938L26.5354 30.648C26.2453 30.7449 25.9331 30.7545 25.6376 30.6756C25.3421 30.5967 25.0762 30.4328 24.8729 30.2043L18.0084 22.4814C17.9611 22.4283 17.9035 22.3854 17.839 22.3555C17.7746 22.3255 17.7047 22.309 17.6337 22.3071C17.5627 22.3051 17.492 22.3177 17.426 22.3441C17.36 22.3705 17.3001 22.4101 17.25 22.4605L6.16877 33.5418Z" fill="#F3F3F3" fill-opacity="0.1"/>
</svg>
