<svg width="120" height="80" viewBox="0 0 120 80" fill="none" xmlns="http://www.w3.org/2000/svg">
<path d="M25.8652 26.166H21.3105V72.1184H25.8652V26.166Z" fill="#F0F3F0" stroke="#0A5518" stroke-miterlimit="10"/>
<path d="M98.9434 26.166H94.3887V72.1184H98.9434V26.166Z" fill="#F0F3F0" stroke="#0A5518" stroke-miterlimit="10"/>
<path d="M8 72.1172H112" stroke="#0A5518" stroke-miterlimit="10"/>
<mask id="mask0_1746_4510" style="mask-type:luminance" maskUnits="userSpaceOnUse" x="11" y="7" width="98" height="22">
<path d="M13.8209 7.52148H106.837C107.32 7.52148 107.784 7.71343 108.125 8.0551C108.467 8.39677 108.659 8.86017 108.659 9.34336V27.1431C108.659 27.3835 108.611 27.6216 108.519 27.8435C108.426 28.0654 108.291 28.2669 108.12 28.4363C107.95 28.6056 107.747 28.7395 107.525 28.8303C107.302 28.921 107.064 28.9668 106.823 28.965L13.8072 28.2818C13.3264 28.2782 12.8665 28.0847 12.5278 27.7434C12.1891 27.4021 11.999 26.9408 11.999 26.4599V9.34336C11.999 8.86017 12.191 8.39677 12.5326 8.0551C12.8743 7.71343 13.3377 7.52148 13.8209 7.52148Z" fill="white"/>
</mask>
<g mask="url(#mask0_1746_4510)">
<path d="M18.364 7.89178L12.1514 5.76473L26.0819 -34.7061L32.2968 -32.579L18.364 7.89178Z" fill="#D0FADF"/>
<path d="M24.5782 10.0187L18.3633 7.89169L32.2961 -32.5791L38.5087 -30.4521L24.5782 10.0187Z" fill="#0A5518"/>
<path d="M30.7907 12.148L24.5781 10.0186L38.5087 -30.4521L44.7236 -28.3251L30.7907 12.148Z" fill="#D0FADF"/>
<path d="M37.0069 14.2749L30.792 12.1479L44.7248 -28.3252L50.9374 -26.1982L37.0069 14.2749Z" fill="#0A5518"/>
<path d="M43.2194 16.4028L37.0068 14.2758L50.9374 -26.1973L57.1523 -24.0702L43.2194 16.4028Z" fill="#D0FADF"/>
<path d="M49.4336 18.5318L43.2188 16.4047L57.1516 -24.0684L63.3642 -21.9413L49.4336 18.5318Z" fill="#0A5518"/>
<path d="M55.6462 20.6587L49.4336 18.5317L63.3641 -21.9414L69.579 -19.8144L55.6462 20.6587Z" fill="#D0FADF"/>
<path d="M61.8614 22.7837L55.6465 20.6567L69.5793 -19.8164L75.7919 -17.6871L61.8614 22.7837Z" fill="#0A5518"/>
<path d="M68.0739 24.9113L61.8613 22.7843L75.7919 -17.6865L82.0068 -15.5595L68.0739 24.9113Z" fill="#D0FADF"/>
<path d="M74.2891 27.0383L68.0742 24.9112L82.007 -15.5596L88.2197 -13.4325L74.2891 27.0383Z" fill="#0A5518"/>
<path d="M80.5017 29.1652L74.2891 27.0382L88.2196 -13.4326L94.4345 -11.3056L80.5017 29.1652Z" fill="#D0FADF"/>
<path d="M86.7159 31.2941L80.501 29.1671L94.4338 -11.3037L100.649 -9.17667L86.7159 31.2941Z" fill="#0A5518"/>
<path d="M92.9284 33.4211L86.7158 31.294L100.649 -9.17676L106.861 -7.04971L92.9284 33.4211Z" fill="#D0FADF"/>
<path d="M99.1436 35.5471L92.9287 33.42L106.862 -7.05078L113.074 -4.92374L99.1436 35.5471Z" fill="#0A5518"/>
<path d="M105.356 37.676L99.1436 35.5489L113.074 -4.92188L119.289 -2.79483L105.356 37.676Z" fill="#D0FADF"/>
<path d="M111.571 39.801L105.356 37.6739L119.289 -2.79688L125.504 -0.669827L111.571 39.801Z" fill="#0A5518"/>
<path d="M-1.78153 46.2398L-7.99414 44.1127L5.93641 3.63965L12.1513 5.76669L-1.78153 46.2398Z" fill="#0A5518"/>
<path d="M4.43364 48.3648L-1.78125 46.2377L12.1516 5.76465L18.3642 7.89397L4.43364 48.3648Z" fill="#D0FADF"/>
<path d="M10.6462 50.4914L4.43359 48.3643L18.3641 7.89355L24.579 10.0183L10.6462 50.4914Z" fill="#0A5518"/>
<path d="M16.8604 52.6177L10.6455 50.4906L24.5783 10.0176L30.7909 12.1469L16.8604 52.6177Z" fill="#D0FADF"/>
<path d="M23.073 54.7443L16.8604 52.6173L30.7909 12.1465L37.0058 14.2735L23.073 54.7443Z" fill="#0A5518"/>
<path d="M29.2881 56.8752L23.0732 54.7481L37.0061 14.2773L43.2187 16.4044L29.2881 56.8752Z" fill="#D0FADF"/>
<path d="M35.5007 59.0002L29.2881 56.8731L43.2186 16.4023L49.4335 18.5294L35.5007 59.0002Z" fill="#0A5518"/>
<path d="M41.7159 61.1291L35.501 59.002L49.4338 18.5312L55.6464 20.6583L41.7159 61.1291Z" fill="#D0FADF"/>
<path d="M47.9284 63.2531L41.7158 61.1261L55.6464 20.6553L61.8613 22.7823L47.9284 63.2531Z" fill="#0A5518"/>
<path d="M54.1436 65.382L47.9287 63.255L61.8615 22.7842L68.0741 24.9112L54.1436 65.382Z" fill="#D0FADF"/>
<path d="M60.3562 67.509L54.1436 65.3819L68.0741 24.9111L74.289 27.0382L60.3562 67.509Z" fill="#0A5518"/>
<path d="M66.5713 69.6359L60.3564 67.5089L74.2893 27.0381L80.5019 29.1651L66.5713 69.6359Z" fill="#D0FADF"/>
</g>
<path d="M107.14 7.51758H13.518C12.6791 7.51758 11.999 8.19765 11.999 9.03657V27.1028C11.999 27.9417 12.6791 28.6218 13.518 28.6218H107.14C107.979 28.6218 108.659 27.9417 108.659 27.1028V9.03657C108.659 8.19765 107.979 7.51758 107.14 7.51758Z" stroke="#0A5518" stroke-miterlimit="10"/>
<mask id="mask1_1746_4510" style="mask-type:luminance" maskUnits="userSpaceOnUse" x="48" y="34" width="24" height="36">
<path d="M59.3159 34.5668C59.3428 34.4822 59.3987 34.4078 59.4751 34.3549C59.5516 34.302 59.6446 34.2734 59.7402 34.2734C59.8357 34.2734 59.9287 34.302 60.0052 34.3549C60.0817 34.4078 60.1376 34.4822 60.1645 34.5668L65.5746 51.4771L71.4091 69.7114H48.0713L53.9057 51.4771L59.3159 34.5668Z" fill="white"/>
</mask>
<g mask="url(#mask1_1746_4510)">
<path d="M59.2232 34.5016C59.2556 34.3981 59.3235 34.3071 59.4168 34.2423C59.51 34.1776 59.6235 34.1426 59.7402 34.1426C59.8568 34.1426 59.9703 34.1776 60.0636 34.2423C60.1568 34.3071 60.2248 34.3981 60.2571 34.5016L65.5746 51.1972L71.4091 69.5126H48.0713L53.9057 51.1972L59.2232 34.5016Z" fill="#D0FADF"/>
<path d="M65.1404 32.8359H54.6826V40.4083H65.1404V32.8359Z" fill="white"/>
<path d="M65.1404 32.8359H54.6826V40.4083H65.1404V32.8359Z" stroke="#0A5518" stroke-miterlimit="10"/>
<path d="M67.1092 46.75H52.0996V53.1889H67.1092V46.75Z" fill="white"/>
<path d="M67.1092 46.75H52.0996V53.1889H67.1092V46.75Z" stroke="#0A5518" stroke-miterlimit="10"/>
<path d="M70.5053 58.6436L48.3965 58.6436V65.066H70.5053V58.6436Z" fill="white"/>
<path d="M70.5053 58.6436L48.3965 58.6436V65.066H70.5053V58.6436Z" stroke="#0A5518" stroke-miterlimit="10"/>
</g>
<path d="M59.3149 34.5727C59.3418 34.488 59.3977 34.4137 59.4742 34.3608C59.5507 34.3079 59.6436 34.2793 59.7392 34.2793C59.8348 34.2793 59.9277 34.3079 60.0042 34.3608C60.0807 34.4137 60.1366 34.488 60.1635 34.5727L65.5736 51.4829L71.4081 69.7173H48.0703L53.9048 51.4829L59.3149 34.5727Z" stroke="#0A5518" stroke-miterlimit="10"/>
<path d="M74.2259 69.7148H45V72.4832H74.2259V69.7148Z" fill="#D0FADF" stroke="#0A5518" stroke-linecap="round" stroke-linejoin="round"/>
</svg>
