<svg width="36" height="36" viewBox="0 0 36 36" fill="none" xmlns="http://www.w3.org/2000/svg">
<path d="M17.9557 9.70847L18.0001 9.74382L18.0444 9.70848C18.4138 9.41641 18.9535 9.05091 19.6364 8.75877C21.0221 8.16593 22.9803 7.8876 25.2123 9.08158C27.9949 10.57 29.3605 14.1331 28.4866 17.8026C27.6027 21.5144 24.4618 25.3368 18.263 27.6518L18.0001 27.75L17.7371 27.6518C11.5383 25.3368 8.39742 21.5144 7.51345 17.8026C6.63954 14.1331 8.00512 10.57 10.7877 9.08157C13.0197 7.88758 14.9779 8.16593 16.3636 8.75876C17.0465 9.0509 17.5862 9.4164 17.9557 9.70847Z" fill="#FFFAFA"/>
</svg>
