<svg width="12" height="17" viewBox="0 0 12 17" fill="none" xmlns="http://www.w3.org/2000/svg">
<path d="M2.43924 7.78894L2.10018 7.87577L2.43924 7.78894ZM1.80805 5.54712L2.14171 5.44143L1.80805 5.54712ZM1.42989 2.55401L1.15198 2.34125L1.42989 2.55401ZM3.31509 10.5701L2.98789 10.6943L3.31509 10.5701ZM4.14424 12.8793L4.48749 12.8109L4.14424 12.8793ZM4.44563 15.4916L4.7951 15.5108L4.79767 15.4641L4.78787 15.4183L4.44563 15.4916ZM5.27412 15.677L5.27232 16.027L5.27412 15.677ZM6.3119 1.34156L5.9619 1.34148L6.3119 1.34156ZM7.71946 0.92072L8.0398 0.779713L8.03979 0.779675L7.71946 0.92072ZM8.09846 3.81631L7.74875 3.83066L8.09846 3.81631ZM8.42716 7.58652C8.61329 7.53437 8.72191 7.3412 8.66976 7.15507C8.61761 6.96894 8.42444 6.86032 8.23831 6.91247L8.42716 7.58652ZM3.70549 4.88718L3.54721 4.57502L3.53809 4.57964L3.52925 4.58479L3.70549 4.88718ZM3.33447 5.76483L3.68441 5.77139L3.33447 5.76483ZM4.9034 5.32394L5.24092 5.2313L4.9034 5.32394ZM4.91381 5.07666L4.56532 5.04419L4.56348 5.06393L4.56388 5.08375L4.91381 5.07666ZM5.72428 4.25624L5.73045 3.9063L5.72428 4.25624ZM5.06811 7.14799L4.72079 7.1912L5.06811 7.14799ZM10.2812 7.39068L10.0812 7.10346L10.0647 7.11495L10.0496 7.12825L10.2812 7.39068ZM11.0646 6.84512L11.2646 7.13233L11.2724 7.12693L11.2798 7.12112L11.0646 6.84512ZM11.3725 6.19886L11.7178 6.14114L11.7166 6.13459L11.3725 6.19886ZM10.6672 5.69749L10.6601 5.34756L10.6336 5.3481L10.6075 5.35262L10.6672 5.69749ZM9.35576 6.30616L9.15789 6.01746L9.35576 6.30616ZM8.07617 7.03225C7.97174 7.19491 8.01893 7.41143 8.18159 7.51587C8.34425 7.62031 8.56077 7.57311 8.66521 7.41045L8.07617 7.03225ZM8.84253 10.0155L8.5229 9.87287L8.84253 10.0155ZM8.24272 15.2141C8.29055 15.4014 8.48115 15.5145 8.66844 15.4666C8.85573 15.4188 8.96878 15.2282 8.92095 15.0409L8.24272 15.2141ZM8.54137 15.5675L8.1951 15.6185L8.25094 15.998L8.62379 15.9077L8.54137 15.5675ZM10.9701 14.4913L11.3201 14.4931L10.9701 14.4913ZM8.2985 13.9168L8.31486 13.5672L7.89037 13.5473L7.95223 13.9678L8.2985 13.9168ZM7.81399 7.4578C7.71048 7.62105 7.75891 7.8373 7.92216 7.94081C8.08542 8.04431 8.30167 7.99588 8.40517 7.83263L7.81399 7.4578ZM9.03088 7.04786C9.1662 6.90983 9.16401 6.68824 9.02598 6.55291C8.88795 6.41759 8.66635 6.41978 8.53103 6.55781L9.03088 7.04786ZM2.7783 7.70211C2.59229 6.97579 2.43687 6.37325 2.14171 5.44143L1.47439 5.65281C1.7635 6.56551 1.91504 7.15283 2.10018 7.87577L2.7783 7.70211ZM2.14171 5.44143C2.05002 5.15199 1.86183 4.54942 1.74487 3.9592C1.6862 3.66313 1.64823 3.38354 1.646 3.15506C1.64358 2.90685 1.68508 2.79644 1.7078 2.76676L1.15198 2.34125C0.976611 2.57032 0.943388 2.89096 0.946035 3.1619C0.948875 3.45256 0.995784 3.78021 1.05822 4.09527C1.18347 4.72731 1.38244 5.36255 1.47439 5.65281L2.14171 5.44143ZM1.7078 2.76676C1.76473 2.6924 1.80653 2.67887 1.82345 2.67532C1.84436 2.67093 1.87956 2.67158 1.9323 2.69656C2.05203 2.75326 2.16278 2.88878 2.19623 2.99519L2.86402 2.78527C2.77355 2.49748 2.53226 2.20614 2.23189 2.06391C2.07459 1.98942 1.88273 1.94759 1.67956 1.99027C1.47241 2.03378 1.29313 2.15687 1.15198 2.34125L1.7078 2.76676ZM2.19623 2.99519C2.26087 3.20082 2.4775 3.80403 2.67466 4.35554C2.77437 4.63445 2.87017 4.90309 2.94195 5.10871C2.97791 5.21171 3.00728 5.29731 3.02792 5.35984C3.03831 5.39131 3.04583 5.41496 3.05068 5.43114C3.05874 5.45798 3.05351 5.44505 3.05006 5.41999L3.74352 5.32455C3.73817 5.2857 3.72548 5.2444 3.72115 5.22996C3.71362 5.20487 3.70383 5.17433 3.69263 5.14041C3.6701 5.07214 3.63917 4.98207 3.60284 4.87801C3.53006 4.66952 3.43338 4.39845 3.33381 4.11991C3.13241 3.55653 2.9233 2.97386 2.86402 2.78527L2.19623 2.99519ZM2.10018 7.87577C2.51054 9.47819 2.56044 9.56874 2.98789 10.6943L3.64229 10.4458C3.22242 9.34017 3.18105 9.27485 2.7783 7.70211L2.10018 7.87577ZM2.98789 10.6943C3.33481 11.6079 3.62818 12.0802 3.80098 12.9477L4.48749 12.8109C4.29996 11.8695 3.94713 11.2486 3.64229 10.4458L2.98789 10.6943ZM3.80098 12.9477C3.86843 13.2863 3.91286 13.7797 3.956 14.2801C3.99746 14.7609 4.03852 15.262 4.10339 15.5649L4.78787 15.4183C4.73467 15.1699 4.6971 14.7266 4.65341 14.2199C4.61141 13.7328 4.56417 13.1958 4.48749 12.8109L3.80098 12.9477ZM4.09616 15.4724C4.08839 15.6134 4.15807 15.713 4.20416 15.7624C4.25078 15.8124 4.3029 15.8446 4.34031 15.8645C4.41709 15.9055 4.50757 15.9342 4.5944 15.9551C4.77346 15.9983 5.00953 16.0256 5.27232 16.027L5.27591 15.327C5.05437 15.3258 4.87388 15.3025 4.75862 15.2747C4.73056 15.2679 4.70864 15.2614 4.69246 15.2558C4.67559 15.25 4.66897 15.2465 4.66972 15.2469C4.67036 15.2472 4.67493 15.2497 4.68203 15.2547C4.68883 15.2596 4.7014 15.2693 4.71591 15.2848C4.74192 15.3127 4.80171 15.3908 4.7951 15.5108L4.09616 15.4724ZM5.27232 16.027C5.64577 16.0289 6.33182 15.9901 7.00927 15.9268C7.67974 15.8642 8.38247 15.7742 8.77372 15.6656L8.58655 14.9911C8.26354 15.0807 7.61987 15.1668 6.9442 15.2299C6.27553 15.2923 5.61569 15.3287 5.27591 15.327L5.27232 16.027ZM6.81744 4.78138C6.82044 4.20203 6.78083 3.41614 6.74124 2.74104C6.70072 2.05 6.66187 1.49595 6.6619 1.34164L5.9619 1.34148C5.96186 1.5232 6.00371 2.12143 6.04244 2.78201C6.08211 3.45854 6.12031 4.22363 6.11745 4.77776L6.81744 4.78138ZM6.6619 1.34164C6.66196 1.07228 6.82774 0.878424 6.99143 0.8177C7.06882 0.788993 7.13711 0.792135 7.19344 0.817099C7.24882 0.841647 7.32964 0.90391 7.39914 1.06176L8.03979 0.779675C7.91457 0.495288 7.72209 0.285732 7.47708 0.177139C7.233 0.0689622 6.97378 0.0776402 6.74798 0.161401C6.3053 0.325613 5.96203 0.784421 5.9619 1.34148L6.6619 1.34164ZM7.39913 1.06173C7.5345 1.36927 7.61743 1.84003 7.66767 2.36667C7.71715 2.88541 7.7317 3.41475 7.74875 3.83066L8.44817 3.80197C8.43164 3.39907 8.41631 2.84324 8.3645 2.3002C8.31345 1.76506 8.22367 1.19743 8.0398 0.779713L7.39913 1.06173ZM7.74875 3.83066C7.76963 4.33953 7.80077 5.20993 7.84046 5.94713C7.86027 6.31515 7.88251 6.65587 7.90719 6.90459C7.91933 7.02703 7.93303 7.13738 7.94923 7.22011C7.95663 7.25785 7.96827 7.31015 7.98811 7.359C7.99657 7.37982 8.01844 7.43101 8.06318 7.48036C8.1106 7.53266 8.2422 7.63834 8.42716 7.58652L8.23831 6.91247C8.41638 6.86258 8.54114 6.96537 8.58177 7.01018C8.61972 7.05205 8.63486 7.09116 8.63665 7.09556C8.64315 7.11155 8.64167 7.11359 8.63618 7.08555C8.62662 7.03673 8.61547 6.95349 8.60377 6.83548C8.58073 6.6033 8.55916 6.2757 8.53945 5.9095C8.50008 5.17826 8.46927 4.31661 8.44817 3.80197L7.74875 3.83066ZM3.52925 4.58479C3.28559 4.72679 2.99643 5.1243 2.98454 5.75826L3.68441 5.77139C3.69259 5.33538 3.88641 5.18684 3.88172 5.18957L3.52925 4.58479ZM2.98454 5.75826C2.97092 6.48411 3.19047 7.32362 3.37173 7.73188L4.01151 7.44783C3.86661 7.12147 3.67294 6.38303 3.68441 5.77139L2.98454 5.75826ZM3.37173 7.73188C3.46734 7.94721 3.6007 8.15167 3.79103 8.29554C3.99068 8.44644 4.23273 8.51472 4.50111 8.48172L4.41566 7.78695C4.32649 7.79792 4.26671 7.77762 4.21313 7.73711C4.15023 7.68957 4.07899 7.59981 4.01151 7.44783L3.37173 7.73188ZM4.50111 8.48172C4.85693 8.43795 5.07061 8.1656 5.18566 7.90606C5.30348 7.64027 5.35727 7.31092 5.36397 6.98073L4.66412 6.96654C4.65855 7.24097 4.61328 7.46998 4.54572 7.62239C4.47538 7.78105 4.41737 7.78674 4.41566 7.78695L4.50111 8.48172ZM5.36397 6.98073C5.37036 6.66573 5.35796 6.29995 5.3361 5.98391C5.31511 5.68058 5.28308 5.3849 5.24092 5.2313L4.56589 5.41658C4.58668 5.49236 4.61611 5.71921 4.63777 6.03223C4.65854 6.33254 4.66999 6.67692 4.66412 6.96654L5.36397 6.98073ZM5.24092 5.2313C5.18308 5.02059 4.99105 4.75481 4.71542 4.58993C4.4123 4.40862 4.00105 4.3449 3.54721 4.57502L3.86377 5.19935C4.0897 5.08479 4.24593 5.12477 4.35608 5.19066C4.41831 5.22788 4.47126 5.27763 4.51068 5.3275C4.55327 5.38138 4.56608 5.41731 4.56589 5.41658L5.24092 5.2313ZM5.2623 5.10913C5.27078 5.0181 5.31062 4.87501 5.39098 4.7656C5.46107 4.67017 5.55625 4.60334 5.71811 4.60619L5.73045 3.9063C5.30604 3.89881 5.00892 4.10329 4.82682 4.35121C4.65498 4.58515 4.58272 4.85744 4.56532 5.04419L5.2623 5.10913ZM5.71811 4.60619C5.83267 4.60821 5.90242 4.63937 5.95065 4.6756C6.003 4.71493 6.05099 4.77649 6.09269 4.86633C6.18117 5.05699 6.20821 5.29543 6.23155 5.5004L6.92706 5.42122C6.90656 5.24117 6.8725 4.88379 6.72764 4.57165C6.65266 4.41009 6.54092 4.24351 6.3711 4.11594C6.19715 3.98526 5.9823 3.91074 5.73045 3.9063L5.71811 4.60619ZM6.23155 5.5004C6.25065 5.66816 6.26006 6.16121 6.25744 6.6731C6.25479 7.19002 6.24005 7.65664 6.22112 7.78095L6.91314 7.88635C6.94161 7.69941 6.95489 7.17211 6.95743 6.67669C6.96 6.17622 6.95179 5.63848 6.92706 5.42122L6.23155 5.5004ZM6.22112 7.78095C6.21695 7.80833 6.18698 7.86715 6.10738 7.92032C6.07144 7.94433 6.03728 7.95852 6.0128 7.96469C5.98471 7.97177 5.98975 7.9637 6.01784 7.97241L5.81059 8.64102C6.06173 8.71887 6.32626 8.61592 6.4962 8.5024C6.67861 8.38055 6.86991 8.17023 6.91314 7.88635L6.22112 7.78095ZM6.01784 7.97241C5.90925 7.93875 5.49018 7.70554 5.41544 7.10478L4.72079 7.1912C4.83654 8.12151 5.49842 8.54426 5.81059 8.64102L6.01784 7.97241ZM5.41544 7.10478C5.35504 6.61932 5.27564 5.65698 5.26374 5.06957L4.56388 5.08375C4.57636 5.6997 4.658 6.68655 4.72079 7.1912L5.41544 7.10478ZM10.4812 7.6779L11.2646 7.13233L10.8646 6.5579L10.0812 7.10346L10.4812 7.6779ZM11.0646 6.84512C11.2798 7.12112 11.2799 7.12105 11.28 7.12098C11.28 7.12095 11.2801 7.12087 11.2802 7.12082C11.2803 7.12071 11.2805 7.1206 11.2806 7.12049C11.2809 7.12026 11.2812 7.12001 11.2816 7.11974C11.2823 7.1192 11.283 7.11859 11.2839 7.1179C11.2856 7.11653 11.2877 7.11485 11.2901 7.11288C11.2949 7.10894 11.3011 7.1038 11.3084 7.09751C11.323 7.08497 11.3424 7.06767 11.3647 7.04604C11.4088 7.00329 11.4674 6.94087 11.5245 6.86204C11.633 6.71227 11.7702 6.45476 11.7177 6.14115L11.0273 6.25657C11.0349 6.30226 11.0181 6.36788 10.9576 6.45142C10.9302 6.48924 10.9006 6.52101 10.8776 6.5433C10.8664 6.55417 10.8574 6.5621 10.8521 6.56666C10.8495 6.56892 10.8478 6.57029 10.8473 6.57073C10.847 6.57095 10.8471 6.57093 10.8474 6.57066C10.8476 6.57053 10.8478 6.57033 10.8481 6.57007C10.8483 6.56994 10.8485 6.5698 10.8487 6.56964C10.8488 6.56956 10.8489 6.56947 10.849 6.56939C10.8491 6.56934 10.8492 6.56927 10.8492 6.56925C10.8493 6.56918 10.8494 6.56911 11.0646 6.84512ZM11.3725 6.19886C11.7166 6.13459 11.7165 6.13439 11.7165 6.13419C11.7165 6.13412 11.7164 6.13392 11.7164 6.13379C11.7164 6.13351 11.7163 6.13323 11.7163 6.13294C11.7161 6.13235 11.716 6.13173 11.7159 6.13108C11.7156 6.12977 11.7153 6.12833 11.715 6.12676C11.7144 6.12361 11.7136 6.11994 11.7126 6.11576C11.7108 6.10742 11.7082 6.09705 11.7049 6.08494C11.6984 6.0608 11.6886 6.02924 11.6745 5.99274C11.6466 5.92053 11.5998 5.82396 11.5231 5.72672C11.3598 5.51993 11.0819 5.33912 10.6601 5.34756L10.6742 6.04742C10.8618 6.04367 10.9366 6.11354 10.9737 6.16048C10.9971 6.19011 11.0123 6.22117 11.0215 6.24488C11.0259 6.25633 11.0284 6.26479 11.0295 6.26869C11.03 6.2706 11.0301 6.27125 11.0299 6.27043C11.0299 6.27002 11.0297 6.26922 11.0294 6.26802C11.0293 6.26742 11.0292 6.26671 11.029 6.2659C11.0289 6.26549 11.0288 6.26506 11.0287 6.2646C11.0287 6.26437 11.0287 6.26413 11.0286 6.26389C11.0286 6.26377 11.0286 6.26358 11.0285 6.26352C11.0285 6.26333 11.0285 6.26314 11.3725 6.19886ZM10.6075 5.35262C9.9877 5.45983 9.69835 5.64703 9.15789 6.01746L9.55363 6.59486C10.0748 6.23763 10.2613 6.1229 10.7268 6.04237L10.6075 5.35262ZM9.15789 6.01746C8.59918 6.40038 8.20659 6.82913 8.07617 7.03225L8.66521 7.41045C8.73282 7.30515 9.05066 6.93958 9.55363 6.59486L9.15789 6.01746ZM8.53707 12.5853C8.56227 11.5666 8.75592 11.0687 9.16216 10.1581L8.5229 9.87287C8.10112 10.8183 7.86582 11.4148 7.83729 12.568L8.53707 12.5853ZM9.16216 10.1581C9.28456 9.88373 9.38562 9.62437 9.47875 9.38542C9.57291 9.14381 9.65784 8.92606 9.75214 8.72016C9.9375 8.31541 10.153 7.97054 10.5128 7.65311L10.0496 7.12825C9.59422 7.53009 9.3274 7.96645 9.11571 8.42869C9.01147 8.65629 8.91919 8.89348 8.82653 9.13123C8.73284 9.37163 8.63748 9.61604 8.5229 9.87287L9.16216 10.1581ZM7.83729 12.568C7.80894 13.7137 8.19964 15.0454 8.24272 15.2141L8.92095 15.0409C8.86774 14.8325 8.51169 13.6114 8.53707 12.5853L7.83729 12.568ZM8.62379 15.9077C8.79375 15.8665 9.01856 15.8249 9.29064 15.7686C9.55385 15.7142 9.84811 15.6484 10.1235 15.5636C10.3942 15.4802 10.6723 15.371 10.8894 15.2193C11.1061 15.0679 11.3184 14.8317 11.3201 14.4931L10.6201 14.4895C10.6201 14.5031 10.6166 14.556 10.4884 14.6455C10.3606 14.7348 10.1648 14.8184 9.91748 14.8946C9.67484 14.9693 9.40695 15.0297 9.14881 15.0831C8.89954 15.1347 8.6438 15.1826 8.45895 15.2274L8.62379 15.9077ZM11.3201 14.4931C11.3222 14.0981 11.0174 13.8871 10.7715 13.785C10.5163 13.6791 10.194 13.6285 9.88779 13.6016C9.57491 13.5742 9.24676 13.5693 8.96584 13.5692C8.67373 13.5691 8.45184 13.5736 8.31486 13.5672L8.28214 14.2664C8.44054 14.2738 8.70075 14.2691 8.96553 14.2692C9.2415 14.2693 9.54502 14.2742 9.82666 14.2989C10.115 14.3242 10.35 14.368 10.5032 14.4315C10.5786 14.4628 10.6115 14.4899 10.6224 14.5018C10.6266 14.5063 10.625 14.5059 10.6228 14.5005C10.6218 14.498 10.621 14.4953 10.6206 14.4928C10.6201 14.4904 10.6201 14.4891 10.6201 14.4895L11.3201 14.4931ZM7.95223 13.9678L8.1951 15.6185L8.88764 15.5166L8.64477 13.8659L7.95223 13.9678ZM8.40517 7.83263C8.52178 7.64872 8.75524 7.32901 9.03088 7.04786L8.53103 6.55781C8.21523 6.87993 7.95211 7.23996 7.81399 7.4578L8.40517 7.83263Z" fill="#141414"/>
</svg>
