<svg width="62" height="104" viewBox="0 0 62 104" fill="none" xmlns="http://www.w3.org/2000/svg">
<path d="M14.2268 69.7589C5.17151 59.1079 2.84527 48.6876 2.51844 46.8804C2.0378 46.0729 1.65331 45.3231 1.3457 44.6502C0.153714 42.1125 0.61512 39.0748 2.53768 37.0946C6.53661 32.9226 10.1894 31.596 10.3432 31.5384C10.4201 31.5384 10.497 31.4999 10.5739 31.4999C11.0353 30.1157 11.9582 28.866 13.2655 28.0201C16.7453 25.7514 20.7059 23.925 21.7633 23.4444C21.2442 19.9645 20.7827 15.5234 20.4174 9.87107C20.2828 7.52554 21.1096 5.19924 22.7246 3.48816C24.3395 1.73862 26.5312 0.796569 28.8959 0.777344C31.2607 0.777344 33.1448 2.41152 33.4139 4.58402C33.5677 5.71833 33.7215 7.06413 33.8753 8.4676C34.2214 11.7744 34.6252 15.5234 35.1828 17.446C36.1248 20.8104 38.2972 28.6737 38.451 31.1731C39.9506 31.7498 41.1426 32.9995 41.6041 34.6721C42.8153 39.1517 44.5649 47.8801 42.6423 56.301L44.3342 61.4342C44.5072 61.3765 44.6803 61.3573 44.8726 61.415C45.2378 61.4919 45.5068 61.7803 45.6029 62.1456C45.6029 62.184 46.5067 66.2022 48.4485 71.5854C48.6023 72.0083 48.7561 72.4313 48.9099 72.8735H48.9674C49.1789 72.8735 49.3905 72.8927 49.5827 72.8927C49.7173 72.8927 49.8326 72.8927 49.9479 72.9311C52.7356 73.0849 55.1775 73.7194 57.1 74.7383C59.0034 75.7381 60.4643 77.1608 61.2334 78.968C61.6179 79.8331 61.791 80.756 61.8487 81.7557C61.9833 84.6395 60.6567 87.7926 58.1958 90.811C58.215 90.811 58.215 90.8302 58.215 90.8302C58.042 91.0225 57.8882 91.2147 57.7344 91.407C57.5998 91.5415 57.5038 91.6569 57.3692 91.7915C57.2923 91.9068 57.1769 92.0222 57.0615 92.1183C57.0039 92.2144 56.9077 92.3106 56.8116 92.4067C56.677 92.5605 56.5425 92.7143 56.3887 92.8489C56.0811 93.1757 55.7542 93.4833 55.4082 93.7909C55.312 93.9063 55.2351 93.9832 55.1582 94.0409C53.2741 95.7327 51.0823 97.29 48.6215 98.7127C47.2564 99.4625 45.8338 100.174 44.3342 100.808C42.8346 101.443 41.2966 102 39.8162 102.423C39.7778 102.442 39.2778 102.577 39.2778 102.577C38.2397 102.885 37.0862 103.115 35.9711 103.308C35.4328 103.423 34.8943 103.519 34.356 103.596C33.933 103.673 33.491 103.731 33.068 103.769H32.9718C32.9718 103.769 32.818 103.769 32.7411 103.75C32.6065 103.711 32.4527 103.692 32.2989 103.596C32.222 103.558 32.1451 103.519 32.0875 103.461C29.4536 101.193 23.1089 91.7723 18.937 85.5431C17.2836 83.1207 15.6496 80.6983 15.2843 80.2753L15.2458 80.2369C14.9574 80.0831 14.765 79.8908 14.6304 79.6986C13.7076 78.4104 14.6497 76.0841 15.361 74.6999L14.9189 74.1423C14.2844 73.9309 13.7269 73.5464 13.4385 72.8735C12.9578 71.7584 13.6692 70.5087 14.2268 69.7589Z" fill="#A5F17A"/>
<path d="M61.8489 81.7533C61.9834 84.6372 60.6568 87.7902 58.1959 90.8086C58.0614 91.0201 57.8884 91.2123 57.7346 91.4046C57.6 91.5392 57.504 91.6545 57.3694 91.7891C57.2733 91.8852 57.1771 92.0006 57.0617 92.1159C57.004 92.2121 56.9079 92.3082 56.8118 92.4043C56.6772 92.5197 56.5234 92.6927 56.3889 92.8465C56.0812 93.1734 55.7544 93.481 55.4083 93.7886C55.3122 93.9039 55.2353 93.9808 55.1584 94.0385C53.2743 95.7304 51.0825 97.2876 48.6216 98.7103C47.2566 99.4601 45.8339 100.171 44.3343 100.806C42.8347 101.44 41.2967 101.998 39.8164 102.421C39.7779 102.44 39.278 102.575 39.278 102.575C38.2398 102.882 37.0863 103.113 35.9712 103.305C35.3176 103.421 34.6829 103.536 34.0869 103.613L33.3948 102.748C33.664 102.729 33.9333 102.69 34.2216 102.632C35.8174 102.402 37.4516 102.036 39.105 101.556H39.124C39.124 101.556 39.2588 101.517 39.3165 101.479C39.3742 101.479 39.3933 101.46 39.4317 101.44C40.9121 101.017 42.4501 100.46 43.9497 99.8254C45.4493 99.191 46.8722 98.4796 48.2372 97.7298C50.6981 96.3071 52.8896 94.7499 54.7737 93.058C55.6004 92.3274 56.3503 91.5584 57.0425 90.7702C52.9089 85.0794 49.9097 78.3696 47.9103 72.8903H47.9295C48.2564 72.8711 48.5832 72.8711 48.9101 72.8711H48.9676C49.179 72.8711 49.3906 72.8903 49.5829 72.8903C49.7175 72.8903 49.8327 72.8903 49.9481 72.9288C52.7358 73.0826 55.1776 73.717 57.1002 74.736C59.0035 75.7357 60.4645 77.1584 61.2335 78.9656C61.618 79.8308 61.7912 80.7536 61.8489 81.7533Z" fill="#141414"/>
<path d="M58.2152 90.8253C58.0422 91.0176 57.8884 91.2099 57.7345 91.4021C57.6 91.5367 57.504 91.652 57.3694 91.7866C57.2925 91.902 57.1771 92.0173 57.0617 92.1135C57.004 92.2096 56.9079 92.3057 56.8118 92.4018C56.6772 92.5556 56.5427 92.7095 56.3888 92.844C56.0812 93.1709 55.7544 93.4785 55.4083 93.7861C53.505 95.4779 51.2556 97.0929 48.7178 98.5733C47.1606 99.4192 45.7378 100.111 44.3151 100.727C42.7194 101.399 41.162 101.957 39.7009 102.361C39.624 102.399 39.5856 102.418 39.5279 102.438C39.5087 102.438 39.4894 102.438 39.4702 102.457C39.3933 102.495 39.31 102.515 39.2203 102.515C38.1244 102.841 37.0286 103.111 35.9712 103.303C35.4329 103.418 34.8944 103.514 34.3561 103.591C33.9331 103.668 33.4911 103.726 33.0681 103.764H32.9719C32.9719 103.764 32.8181 103.764 32.7412 103.745C32.6066 103.707 32.4529 103.687 32.2991 103.591C32.2222 103.553 32.1453 103.514 32.0876 103.457C29.4537 101.188 23.1091 91.7674 18.9371 85.5383C17.2837 83.1159 15.6497 80.6934 15.2844 80.2705L15.2459 80.232C14.9383 79.9629 14.823 79.5399 14.9768 79.1554C15.1882 78.6555 15.7458 78.4248 16.2265 78.6171C16.4956 78.7324 16.611 78.7709 17.6876 80.2705C18.2644 81.0972 19.1294 82.3853 20.456 84.3655C24.3011 90.0948 30.5687 99.4 33.1449 101.822C33.4333 101.784 33.7411 101.746 34.0487 101.688C35.5867 101.476 37.1824 101.111 38.8358 100.63H38.8741C38.9318 100.611 39.0089 100.592 39.0665 100.573C39.0858 100.554 39.124 100.554 39.1433 100.534C40.5275 100.15 42.0272 99.6115 43.546 98.9578C44.911 98.4002 46.2762 97.7274 47.7566 96.9007C50.1598 95.5164 52.3129 93.9784 54.1009 92.3634C54.6776 91.8635 55.2352 91.3252 55.7927 90.7292C51.4285 84.5193 48.4101 77.2905 46.6221 72.2534C45.4493 68.9658 44.6418 66.2165 44.1804 64.4862C44.1612 64.3901 44.1229 64.294 44.1036 64.1978C43.8345 64.2555 43.5268 64.1979 43.2961 64.0056C42.8923 63.6788 42.8348 63.0635 43.1616 62.6598L43.8922 61.7562C44.0075 61.6024 44.1421 61.5063 44.3151 61.4486C44.4881 61.3909 44.6612 61.3717 44.8535 61.4294C45.2188 61.5063 45.4879 61.7947 45.584 62.1599C45.584 62.1984 46.4876 66.2165 48.4294 71.5997C48.5832 72.0227 48.737 72.4456 48.8908 72.8878C50.7941 78.0787 53.8509 85.0577 58.1767 90.8253C58.1959 90.8253 58.1959 90.8446 58.1959 90.8446L58.2152 90.8253Z" fill="#141414"/>
<path d="M42.6425 56.297C42.6425 56.297 42.604 56.4701 42.5848 56.547C42.4694 56.9892 42.0849 57.2968 41.6427 57.2968C41.5658 57.2968 41.4889 57.2775 41.412 57.2583C40.8929 57.143 40.5853 56.6239 40.7007 56.1048C40.7007 56.0663 40.7199 56.0279 40.7199 55.9894C42.604 47.9339 40.9314 39.4938 39.7394 35.1873C39.2588 33.4185 37.4515 32.3419 35.6059 32.7649C33.6833 33.2071 31.8376 33.8992 30.0689 34.5529C29.2422 34.8412 28.4732 35.1296 27.7234 35.3796C25.3394 36.187 20.8789 37.1868 18.4565 37.7059C17.4952 37.9173 16.8224 38.8017 16.8416 39.8014C16.8993 41.4933 17.5531 42.8776 18.6682 43.8965C19.7833 44.8962 21.2444 45.4153 22.7633 45.3C28.5886 44.9155 32.0492 43.2236 32.0876 43.2044C32.5491 42.9737 33.1257 43.1659 33.3756 43.6466C33.6063 44.108 33.4141 44.6848 32.9335 44.9347C32.8566 44.9731 31.9723 45.3961 30.415 45.896C29.8575 46.0498 29.223 46.2228 28.4925 46.3958C26.9736 46.7419 25.0895 47.0687 22.8977 47.2225C20.8598 47.3571 18.8796 46.6842 17.3607 45.3192C15.8611 43.9542 14.996 42.0701 14.9383 40.0322C14.8806 37.9173 16.188 36.2255 18.0528 35.8217C19.6678 35.4757 22.1864 34.9181 24.3589 34.3606C25.0318 34.1683 25.6854 33.9953 26.243 33.8223C26.5506 33.7261 26.8389 33.6492 27.108 33.5531C27.8386 33.3224 28.6078 33.034 29.396 32.7456C31.1455 32.092 33.1258 31.3614 35.1829 30.9C35.6251 30.8039 36.0672 30.7462 36.4902 30.7654C37.1823 30.7654 37.836 30.9 38.4512 31.1691C39.9508 31.7459 41.1428 32.9956 41.6042 34.6682C42.8155 39.1478 44.5651 47.8762 42.6425 56.297Z" fill="#141414"/>
<path d="M38.4706 31.4191C38.4706 31.9382 38.0284 32.3804 37.5093 32.3804C36.9902 32.3804 36.548 31.9382 36.548 31.4191C36.548 31.2653 36.5287 31.0346 36.4903 30.7654C36.2211 28.8236 35.0486 24.0941 33.3182 17.9611C32.7415 15.8848 32.3184 12.0589 31.9531 8.67517C31.7993 7.29092 31.6647 5.94513 31.5109 4.83004C31.3571 3.61882 30.2996 2.696 29.05 2.696C27.089 2.696 25.378 3.44579 24.1283 4.79159C22.8595 6.13738 22.2249 7.90614 22.3403 9.7518C23.3784 26.3243 25.4741 32.1689 26.2431 33.8223C26.4354 34.226 26.5508 34.3798 26.5508 34.3798C26.8584 34.7836 26.7813 35.3796 26.3776 35.7064C26.2046 35.841 25.9932 35.9179 25.7817 35.9179C25.4933 35.9179 25.2434 35.8025 25.0511 35.5718C24.9742 35.4757 24.7051 35.1296 24.359 34.3606C23.763 33.034 22.8978 30.4001 22.0711 25.4207C21.9557 24.8055 21.8598 24.1518 21.7636 23.4405C21.2445 19.9606 20.783 15.5195 20.4177 9.86716C20.2831 7.52163 21.11 5.19533 22.7249 3.48425C24.3399 1.73472 26.5315 0.792663 28.8963 0.773438C31.261 0.773438 33.1451 2.40762 33.4142 4.58011C33.568 5.71442 33.7218 7.06022 33.8756 8.46369C34.2217 11.7705 34.6255 15.5195 35.1831 17.4421C36.1251 20.8065 38.2975 28.6698 38.4513 31.1692C38.4706 31.2653 38.4706 31.3422 38.4706 31.4191Z" fill="#141414"/>
<path d="M30.415 45.8977C30.5303 47.1089 30.0881 48.3393 29.2037 49.1852C28.973 49.416 28.7231 49.6082 28.4539 49.762L24.6665 51.9345L23.3976 52.6651C22.8208 52.9919 22.1672 53.1649 21.5327 53.1649C20.6676 53.1649 19.8217 52.8766 19.1488 52.319C18.995 52.1844 18.841 52.0306 18.7064 51.8768C18.418 51.55 18.1297 51.2039 17.8606 50.8579C13.9193 45.9169 11.6699 39.8224 10.4395 35.4581C10.2665 34.8814 10.1896 34.2854 10.1896 33.7086C10.1703 32.9396 10.3048 32.1898 10.574 31.4977C11.0354 30.1134 11.9583 28.8637 13.2656 28.0178C16.7454 25.7492 20.706 23.9228 21.7634 23.4421C21.9172 23.3844 22.0134 23.3268 22.0326 23.3268C22.5132 23.1153 23.0898 23.346 23.3013 23.8266C23.5128 24.3073 23.2821 24.884 22.8014 25.0955C22.8014 25.0955 22.5323 25.2109 22.0709 25.4224C20.6097 26.0953 17.2454 27.7294 14.3231 29.6136C12.5351 30.7863 11.7275 32.9204 12.2851 34.939C13.304 38.5919 15.6689 45.4362 20.0523 50.5118C20.0908 50.5503 20.1291 50.5695 20.1483 50.6079C20.7251 51.2616 21.6865 51.4346 22.4363 50.9924L27.4926 48.0894C28.1078 47.7433 28.4732 47.0704 28.4924 46.3975C28.5308 46.1284 28.4923 45.84 28.3769 45.5708C28.1847 45.0709 28.4154 44.5134 28.9153 44.3212C29.3959 44.1289 29.9535 44.3596 30.165 44.8595C30.2996 45.1863 30.3765 45.5516 30.415 45.8977Z" fill="#141414"/>
<path d="M19.8217 51.8372L19.1488 52.3179L14.0925 55.8554C13.458 56.2976 12.7081 56.5283 11.9775 56.5283C11.0354 56.5283 10.0934 56.163 9.36282 55.4901C8.05548 54.2597 6.92113 53.0292 5.95985 51.8372C4.4987 50.0685 3.36455 48.3574 2.51862 46.877C2.03798 46.0695 1.6535 45.3197 1.34589 44.6468C0.153897 42.1091 0.615303 39.0714 2.53787 37.0912C6.5368 32.9192 10.1895 31.5926 10.3434 31.535C10.4203 31.535 10.4971 31.4965 10.574 31.4965C10.997 31.4388 11.42 31.6888 11.5738 32.1117C11.7468 32.6116 11.4968 33.1691 10.997 33.3422C10.9777 33.3614 10.6895 33.4575 10.1896 33.7075C8.97841 34.3035 6.51752 35.7262 3.92206 38.4177C2.55704 39.8404 2.2301 41.9937 3.09525 43.8201C4.30646 46.3772 6.61368 50.2415 10.6895 54.0866C11.324 54.6826 12.2851 54.7788 12.9965 54.2789L17.8606 50.8567L18.7065 50.2607C19.1486 49.9723 19.7448 50.0685 20.0524 50.5107C20.36 50.9336 20.2447 51.5296 19.8217 51.8372Z" fill="#141414"/>
<path d="M18.8411 73.312C18.6681 73.5043 18.4182 73.6004 18.1682 73.6004C17.9183 73.6004 17.6682 73.5043 17.4952 73.312C17.226 73.0429 16.9378 72.7545 16.6878 72.4853C16.2841 72.0624 15.8996 71.6586 15.5343 71.2549C15.0729 70.755 14.6499 70.2552 14.2269 69.7553C5.17162 59.1043 2.84539 48.684 2.51855 46.8768C2.4801 46.7422 2.46082 46.6653 2.46082 46.6269C2.36469 46.1078 2.73004 45.6079 3.24914 45.531C3.749 45.4349 4.26799 45.8002 4.34489 46.3193C4.36412 46.3769 4.72934 48.5302 5.95978 51.837C7.55551 56.2205 10.6125 62.6803 16.1687 69.0824C16.9954 70.0437 17.899 71.005 18.8411 71.947C18.8988 72.0047 18.9371 72.0624 18.9563 72.1201C19.2255 72.4853 19.1679 72.9852 18.8411 73.312Z" fill="#141414"/>
<path d="M25.1665 61.0454C24.7435 61.0454 24.3588 60.7762 24.2435 60.3533C21.8211 52.1439 27.8003 47.9143 27.8772 47.8758C28.3193 47.5682 28.9155 47.6836 29.2231 48.1258C29.5307 48.568 29.4153 49.164 28.9731 49.4524C28.7809 49.5869 24.0706 52.9706 26.0893 59.815C26.2431 60.3148 25.9546 60.8532 25.4355 61.007C25.3393 61.0262 25.2626 61.0454 25.1665 61.0454Z" fill="#141414"/>
<path d="M44.8342 62.9293L44.3344 61.4297L42.6425 56.2965L42.5463 56.0273C42.4309 55.662 42.1042 55.3929 41.7005 55.3736C41.3159 55.3352 40.9507 55.5467 40.7777 55.8927C40.7777 55.9312 40.7391 55.9504 40.7199 55.9889C38.0283 61.2374 25.0509 70.2158 18.9564 72.1192C18.1874 72.3691 17.5529 72.5037 17.0338 72.5037C16.8992 72.5037 16.784 72.5037 16.6879 72.5037C16.2649 72.5037 15.9573 72.446 15.7459 72.4075C15.7266 72.4075 15.7073 72.4075 15.6881 72.4075C15.3036 72.3114 15.2075 72.1768 15.2075 72.1768C15.1498 72.0422 15.2845 71.6962 15.5344 71.2925C15.7074 71.0233 15.9188 70.7349 16.1688 70.485C16.5533 70.1005 16.534 69.4852 16.1688 69.1199C15.7842 68.7547 15.1691 68.7547 14.8038 69.1199C14.7077 69.2353 14.4769 69.466 14.227 69.7929C13.6694 70.5427 12.958 71.7923 13.4386 72.9074C13.727 73.5803 14.2846 73.9648 14.919 74.1763L15.3612 74.7338L16.7071 76.4257L18.1683 78.2521L19.1488 79.4826C19.3411 79.7133 19.61 79.8479 19.8984 79.8479C19.9561 79.8479 20.0139 79.8478 20.0716 79.8286H20.1101L20.5138 79.7517C33.1835 77.2524 42.0079 67.1974 44.1996 64.5058C44.488 64.1405 44.6611 63.9098 44.6995 63.8521C44.8918 63.6022 44.9304 63.2754 44.8342 62.9677V62.9293ZM20.2831 77.7907L17.5722 74.407C23.2245 73.811 36.7017 64.6596 41.3543 58.5458L42.8539 63.0447C41.1621 65.1595 32.4721 75.3298 20.2831 77.7907Z" fill="#141414"/>
<path d="M20.8407 78.6544C20.7445 78.1353 20.2253 77.8085 19.7062 77.9046L18.1683 78.2122L16.7264 78.5006C16.3611 78.5775 16.2072 78.5583 16.188 78.5583C16.0534 78.2699 16.2841 77.3663 16.7071 76.3858C16.8801 75.9436 17.1108 75.5014 17.3415 75.0785C17.6106 74.617 17.4377 74.0403 16.9955 73.7711C16.5341 73.502 15.938 73.6558 15.6688 74.1172C15.5727 74.271 15.4765 74.4632 15.3612 74.6939C14.6498 76.0782 13.7078 78.4045 14.6306 79.6926C14.7652 79.8849 14.9576 80.0771 15.2459 80.2309C15.5151 80.3847 15.861 80.4809 16.3225 80.4809C16.5532 80.4809 16.8224 80.4424 17.1108 80.3847L17.6876 80.2694L20.0716 79.7887H20.1101C20.6099 79.6542 20.956 79.1735 20.8407 78.6544Z" fill="#141414"/>
</svg>
