<svg width="192" height="65" viewBox="0 0 192 65" fill="none" xmlns="http://www.w3.org/2000/svg">
<g clip-path="url(#clip0_1040_1758)">
<path d="M6.75413 28.4611L7.1717 25.4904L15.4893 26.6593L15.0709 29.63M5.91909 34.4027L5.501 37.3735L13.8199 38.5426L14.2359 35.5716" stroke="#856A00" stroke-linejoin="round"/>
<path d="M9.01941 36.0488L10.8019 36.2993" stroke="#856A00" stroke-linejoin="round"/>
<path d="M13.7165 30.6504L15.2485 32.6834L13.2155 34.2154" stroke="#856A00"/>
<path d="M7.77485 29.815L5.74186 31.3469L7.27383 33.3799" stroke="#856A00"/>
</g>
<g clip-path="url(#clip1_1040_1758)">
<path d="M76.1151 48.1765L75.6811 44.6407L85.5809 43.425L86.014 46.9611M76.9835 55.2484L77.4169 58.7844L87.3183 57.5687L86.8824 54.0329" stroke="#856A00" stroke-linejoin="round"/>
<path d="M81.046 56.1836L83.1675 55.9231" stroke="#856A00" stroke-linejoin="round"/>
<path d="M84.7744 48.5488L87.1564 50.4099L85.2953 52.792" stroke="#856A00"/>
<path d="M77.7025 49.4172L75.8414 51.7993L78.2235 53.6604" stroke="#856A00"/>
</g>
<path d="M127.983 9.85919L128.509 6.1155L138.991 7.5885L138.464 11.3322M126.93 17.3469L126.403 21.0907L136.887 22.564L137.411 18.8199" stroke="#856A00" stroke-linejoin="round"/>
<path d="M130.837 19.4238L133.084 19.7395" stroke="#856A00" stroke-linejoin="round"/>
<path d="M136.757 12.6191L138.687 15.1812L136.125 17.1118" stroke="#856A00"/>
<path d="M129.269 11.5677L126.707 13.4983L128.638 16.0603" stroke="#856A00"/>
<g clip-path="url(#clip2_1040_1758)">
<path d="M171.125 47.7066L169.945 44.787L178.12 41.4841L179.299 44.4042M173.484 53.5461L174.663 56.466L182.839 53.1628L181.658 50.2436" stroke="#856A00" stroke-linejoin="round"/>
<path d="M177.167 53.416L178.919 52.7082" stroke="#856A00" stroke-linejoin="round"/>
<path d="M178.604 46.0449L181.063 47.089L180.019 49.5486" stroke="#856A00"/>
<path d="M172.764 48.4035L171.72 50.8632L174.18 51.9072" stroke="#856A00"/>
</g>
<defs>
<clipPath id="clip0_1040_1758">
<rect width="16" height="16" fill="white" transform="translate(0.697205 26.3633) rotate(-15)"/>
</clipPath>
<clipPath id="clip1_1040_1758">
<rect width="19" height="19" fill="white" transform="translate(69.865 44.3906) rotate(-15)"/>
</clipPath>
<clipPath id="clip2_1040_1758">
<rect width="21.7631" height="21.7631" fill="white" transform="translate(161.005 48.9785) rotate(-45)"/>
</clipPath>
</defs>
</svg>
