<svg width="186" height="59" viewBox="0 0 186 59" fill="none" xmlns="http://www.w3.org/2000/svg">
<g clip-path="url(#clip0_1040_1902)">
<path d="M4.03526 24.3984L4.26731 25.0256C4.47998 25.6003 4.93312 26.0534 5.50785 26.2661L6.13496 26.4981L5.50785 26.7302C4.93312 26.9429 4.47998 27.396 4.26731 27.9707L4.03526 28.5979L3.8032 27.9707C3.59053 27.396 3.13739 26.9429 2.56266 26.7302L1.93555 26.4981L2.56266 26.2661C3.13739 26.0534 3.59053 25.6003 3.8032 25.0256L4.03526 24.3984Z" stroke="#165CA8" stroke-linejoin="round"/>
<path d="M10.3006 32.0954C9.87997 35.501 7.77536 36.8189 6.81474 37C4.97389 36.7569 3.76997 35.8546 3.01585 34.802M10.3006 32.0954L8.1862 30.6833M10.3006 32.0954L12.091 28.5951M3.01585 34.802C2.17753 33.6319 1.86166 32.2196 1.87517 31.3721C1.87598 31.3211 1.93015 31.2903 1.97566 31.3131C3.03543 31.8447 5.34448 32.5964 8.1862 30.6833M3.01585 34.802C4.47949 35.2375 6.3518 34.5241 6.89411 34.1653M8.1862 30.6833L10.2901 27.4679M12.091 28.5951L14.3794 24.2C14.5889 23.7992 14.4348 23.3042 14.0351 23.094C13.6639 22.8987 13.2056 23.0164 12.9737 23.3664L10.2901 27.4679M12.091 28.5951L10.2901 27.4679" stroke="#165CA8"/>
</g>
<g clip-path="url(#clip1_1040_1902)">
<path d="M71.3681 45.5974L71.9971 46.1195C72.5736 46.598 73.3303 46.8007 74.0688 46.6746L74.8746 46.537L74.3525 47.166C73.874 47.7424 73.6712 48.4992 73.7974 49.2377L73.935 50.0435L73.306 49.5214C72.7295 49.0429 71.9728 48.8401 71.2343 48.9663L70.4285 49.1039L70.9506 48.4749C71.4291 47.8984 71.6319 47.1417 71.5057 46.4032L71.3681 45.5974Z" stroke="#165CA8" stroke-linejoin="round"/>
<path d="M82.7064 49.9167C84.3428 53.7796 82.9201 56.4614 82.0138 57.2403C79.9161 58.1081 78.09 57.8888 76.6481 57.2353M82.7064 49.9167L79.6046 49.7142M82.7064 49.9167L82.4624 45.1164M76.6481 57.2353C75.0453 56.5089 73.8476 55.2067 73.3438 54.3011C73.3135 54.2466 73.3521 54.181 73.4142 54.1773C74.8612 54.0923 77.7653 53.4767 79.6046 49.7142M76.6481 57.2353C78.464 56.8017 80.0102 54.9019 80.365 54.1905M79.6046 49.7142L79.8666 45.0238M82.4624 45.1164L82.1986 39.0642C82.1754 38.5119 81.7097 38.082 81.158 38.1038C80.6457 38.124 80.2323 38.5287 80.2008 39.041L79.8666 45.0238M82.4624 45.1164L79.8666 45.0238" stroke="#165CA8"/>
</g>
<g clip-path="url(#clip2_1040_1902)">
<path d="M123.649 6.00521L124.183 6.75895C124.672 7.44974 125.439 7.89233 126.282 7.97061L127.202 8.05603L126.448 8.58983C125.757 9.07905 125.314 9.84564 125.236 10.6885L125.151 11.6082L124.617 10.8544C124.128 10.1636 123.361 9.72103 122.518 9.64275L121.599 9.55733L122.352 9.02353C123.043 8.53431 123.486 7.76772 123.564 6.92487L123.649 6.00521Z" stroke="#165CA8" stroke-linejoin="round"/>
<path d="M134.76 14.0351C135.417 18.7293 133.08 21.2401 131.863 21.8251C129.32 22.1588 127.391 21.3854 126.009 20.2507M134.76 14.0351L131.435 12.907M134.76 14.0351L135.898 8.7249M126.009 20.2507C124.472 18.9892 123.545 17.2178 123.261 16.0822C123.243 16.0138 123.305 15.9534 123.374 15.9676C124.978 16.298 128.327 16.4753 131.435 12.907M126.009 20.2507C128.117 20.3084 130.36 18.6872 130.955 18.0146M131.435 12.907L133.092 7.8647M135.898 8.7249L137.38 2.04265C137.516 1.4331 137.134 0.827718 136.525 0.690124C135.96 0.562343 135.391 0.883186 135.206 1.43303L133.092 7.8647M135.898 8.7249L133.092 7.8647" stroke="#165CA8"/>
</g>
<path d="M171.059 39.0745L171.135 39.8885C171.204 40.6345 171.596 41.313 172.207 41.746L172.874 42.2184L172.06 42.294C171.314 42.3633 170.636 42.755 170.203 43.3664L169.73 44.0335L169.655 43.2196C169.585 42.4736 169.194 41.7951 168.582 41.3621L167.915 40.8897L168.729 40.8141C169.475 40.7448 170.154 40.353 170.587 39.7417L171.059 39.0745Z" stroke="#165CA8" stroke-linejoin="round"/>
<path d="M176.022 50.1468C174.448 54.0354 171.546 54.9257 170.354 54.8356C168.257 53.966 167.121 52.5196 166.563 51.038M176.022 50.1468L173.972 47.8103M176.022 50.1468L179.244 46.58M166.563 51.038C165.944 49.391 166.018 47.6233 166.302 46.6268C166.319 46.5668 166.392 46.5476 166.439 46.589C167.522 47.552 170.011 49.1702 173.972 47.8103M166.563 51.038C168.154 52.0154 170.591 51.7654 171.345 51.5132M173.972 47.8103L177.474 44.679M179.244 46.58L183.337 42.1139C183.711 41.707 183.686 41.0736 183.28 40.6989C182.904 40.3509 182.325 40.3448 181.941 40.6848L177.474 44.679M179.244 46.58L177.474 44.679" stroke="#165CA8"/>
<defs>
<clipPath id="clip0_1040_1902">
<rect width="16" height="16" fill="white" transform="translate(0.495178 22.0215)"/>
</clipPath>
<clipPath id="clip1_1040_1902">
<rect width="19" height="19" fill="white" transform="translate(70.0001 39.6094)"/>
</clipPath>
<clipPath id="clip2_1040_1902">
<rect width="23.4036" height="23.4036" fill="white" transform="translate(118.995 0.640625)"/>
</clipPath>
</defs>
</svg>
