<svg width="86" height="100" viewBox="0 0 86 100" fill="none" xmlns="http://www.w3.org/2000/svg">
<path d="M85.457 26.9933C85.2149 30.1195 83.7619 32.9815 81.3843 34.9849C79.9973 36.1517 78.4122 36.9663 76.717 37.3625L76.4088 38.1331C75.9024 39.3219 74.8015 40.1586 73.4806 40.3787C62.2968 42.206 55.8905 51.2102 53.645 54.9748C52.5222 56.9122 50.6068 58.2331 48.3833 58.6294C48.3392 58.6294 48.2951 58.6514 48.251 58.6514C46.0715 59.0037 44.3104 60.6108 43.716 62.7462L43.6058 77.8268C50.937 79.9403 55.6922 83.4627 55.6922 87.4695C55.6922 91.6965 50.3644 95.373 42.3949 97.4204C42.1087 97.4865 41.8007 97.5745 41.4925 97.6406C40.9641 97.7727 40.4358 97.8828 39.8854 97.9929C36.3189 98.7194 32.3119 99.1157 28.0849 99.1157C23.4177 99.1157 19.0146 98.6313 15.1619 97.7507C14.3033 97.5526 13.4667 97.3544 12.6742 97.1122C12.5861 97.0902 12.476 97.0462 12.388 97.0242C5.21095 94.9327 0.499878 91.4323 0.499878 87.4695C0.499878 83.5068 5.01287 80.1604 11.9037 78.0249L12.9824 47.7979C13.1585 43.3508 14.4794 39.0357 16.8131 35.2931L26.1475 20.3887C30.2644 13.7841 36.2967 8.74264 43.5838 5.83661C47.2824 4.36158 52.4119 2.35817 55.8683 1.21338C57.6515 0.618961 59.6549 0.839091 61.3721 1.80777C64.9826 3.87721 71.5874 7.59781 75.2639 9.24897C76.2766 9.68927 77.0691 10.5479 77.4214 11.6046C77.7736 12.6614 77.6856 13.7841 77.1352 14.7968C77.1352 14.8188 77.1131 14.8189 77.1131 14.8409C82.2868 16.2719 85.9414 21.3794 85.457 26.9933Z" fill="#FBDE6B"/>
<path d="M55.6922 87.4485C55.6922 91.6754 50.3644 95.352 42.3949 97.3994C42.1087 97.4654 41.8007 97.5535 41.4925 97.6196C40.9641 97.7516 40.4358 97.8617 39.8854 97.9718C36.3189 98.6983 32.3119 99.0946 28.0849 99.0946C23.4177 99.0946 19.0146 98.6103 15.1619 97.7297C14.3033 97.5315 13.4667 97.3334 12.6742 97.0912C12.5861 97.0692 12.476 97.0251 12.388 97.0031C5.21095 94.9117 0.499878 91.4112 0.499878 87.4485C0.499878 83.4857 5.01287 80.1394 11.9037 78.0039C12.2779 77.9158 12.6522 77.8058 13.0265 77.6957L12.388 95.7923H12.41C12.41 95.7923 12.5861 95.8583 12.6742 95.8803C13.4667 96.1225 14.3033 96.3207 15.1619 96.5188C19.0146 97.3994 23.4177 97.8837 28.0849 97.8837C32.3119 97.8837 36.3189 97.4875 39.8854 96.761C40.4358 96.6509 40.9641 96.5408 41.4925 96.4087C41.8007 96.3427 42.1087 96.2546 42.3949 96.1886L42.5271 77.5195C42.9014 77.6076 43.2536 77.7177 43.6058 77.8057C50.937 79.9192 55.6922 83.4417 55.6922 87.4485Z" fill="#141414"/>
<path d="M77.1351 14.7768C77.1351 14.7768 77.1131 14.7988 77.1131 14.8208C76.7168 15.5474 76.1885 16.1858 75.5721 16.7362C74.8236 17.4627 73.921 18.0351 72.8422 18.4974C71.2571 19.2239 69.4739 19.5101 67.6466 19.356C66.81 19.312 65.9734 19.1799 65.1368 18.9377C64.5424 18.7836 63.9479 18.5855 63.3755 18.3213C61.1079 17.3086 59.0605 16.2518 57.2772 15.1951C56.5287 14.7768 55.8243 14.3365 55.1638 13.8962C54.3493 13.3458 53.6007 12.8174 52.9182 12.2671C52.4339 11.8708 52.3679 11.1883 52.7422 10.704C53.1385 10.2417 53.8209 10.1536 54.3052 10.5499C55.3179 11.3644 56.5067 12.179 57.8496 12.9935C59.6989 14.1163 61.8345 15.2171 64.2782 16.3179C66.854 17.4407 69.6499 17.5067 71.9616 16.494C73.4806 15.8335 74.5593 14.9089 75.1977 13.7201C75.4399 13.2578 75.4841 12.7734 75.33 12.2891C75.1759 11.8268 74.8235 11.4525 74.3611 11.2323C70.5965 9.53715 63.9258 5.79451 60.2713 3.70305C59.1045 3.04259 57.7396 2.88848 56.5508 3.28476C53.1604 4.40754 48.0749 6.38896 44.3983 7.86399C37.5515 10.5939 31.8937 15.3272 28.019 21.5355L18.6845 36.4399C16.549 39.8523 15.338 43.7931 15.1839 47.8439L13.5327 94.9788C14.1491 95.1549 14.7875 95.287 15.404 95.4411C19.2346 96.3217 23.6157 96.784 28.0848 96.784C32.2017 96.784 36.0984 96.4097 39.6649 95.6832C40.2153 95.5731 40.7219 95.463 41.2282 95.3309H41.3161L41.5144 62.5722C41.5144 62.4841 41.5362 62.396 41.5582 62.3079C42.3288 59.2698 44.8165 56.9803 47.8987 56.4519C48.0087 56.4519 48.0968 56.4519 48.1849 56.4519C49.5718 56.1877 50.9368 55.241 51.7513 53.854C54.151 49.8252 61.02 40.2045 73.1284 38.2011C73.5027 38.1351 73.8548 37.959 74.097 37.6948C74.2291 37.5847 74.3171 37.4306 74.3832 37.2765L74.7575 36.3738C74.9997 35.8234 75.6382 35.5593 76.1886 35.7794C76.761 36.0216 77.025 36.6601 76.7828 37.2325L76.7169 37.3645L76.4087 38.1351C75.9023 39.3239 74.8014 40.1605 73.4805 40.3806C62.2967 42.2079 55.8905 51.2122 53.6449 54.9768C52.5221 56.9142 50.6067 58.2351 48.3832 58.6314C48.3392 58.6314 48.295 58.6534 48.251 58.6534C46.0715 59.0057 44.3104 60.6128 43.716 62.7482L43.6058 77.8288L43.4956 96.2116C43.4956 96.806 43.0333 97.2903 42.4389 97.3344L41.7345 97.4885C41.2282 97.6206 40.6778 97.7527 40.1054 97.8628C36.3848 98.6113 32.3338 99.0075 28.0848 99.0075C23.4616 99.0075 18.9045 98.5232 14.9197 97.5986C14.0391 97.4005 13.1807 97.2023 12.3661 96.9381L12.4099 95.8153L12.1017 96.872C11.6173 96.74 11.2651 96.2776 11.2871 95.7713L11.9036 78.0269L12.9823 47.7998C13.1585 43.3527 14.4794 39.0377 16.813 35.2951L26.1475 20.3907C30.2643 13.7861 36.2966 8.74457 43.5837 5.83855C47.2823 4.36352 52.4118 2.36011 55.8682 1.21531C57.6514 0.620894 59.6548 0.84109 61.372 1.80977C64.9826 3.87921 71.5873 7.59981 75.2639 9.25097C76.2766 9.69127 77.0691 10.5498 77.4213 11.6066C77.7736 12.6633 77.6855 13.7861 77.1351 14.7988V14.7768Z" fill="#141414"/>
<path d="M54.0633 48.4602C53.7991 48.4602 53.557 48.3721 53.3368 48.196C52.8745 47.7997 52.8304 47.0952 53.2267 46.6329C59.6772 39.1036 62.121 31.9707 63.0016 28.3822C63.2218 27.5236 62.9795 26.6209 62.3631 26.0045C55.6044 19.1577 42.2191 15.0188 42.087 14.9748C41.5146 14.7987 41.1842 14.1823 41.3604 13.6099C41.5365 13.0375 42.1529 12.7073 42.7253 12.8834C43.2977 13.0595 56.7711 17.2204 63.9261 24.4635C65.0929 25.6303 65.5333 27.3034 65.137 28.9106C64.2124 32.6972 61.6365 40.2044 54.8998 48.0859C54.6797 48.3501 54.3715 48.4602 54.0633 48.4602Z" fill="#141414"/>
<path d="M48.4272 52.6004C47.0182 52.6004 43.65 52.0059 39.247 47.2726C37.7499 45.6655 37.0895 43.486 37.3978 41.3065L37.7057 39.2371C37.7938 38.6426 38.3664 38.2243 38.9608 38.3124C39.5552 38.4004 39.9736 38.9508 39.8855 39.5673L39.5773 41.6367C39.3571 43.1338 39.8413 44.6748 40.8541 45.7976C44.9489 50.2227 47.8769 50.4649 48.5154 50.4208C58.004 44.7409 54.9217 35.2082 54.7676 34.8119C51.025 28.2073 37.3756 24.4427 37.2435 24.4207C36.6491 24.2666 36.3189 23.6502 36.473 23.0778C36.6271 22.4834 37.2435 22.1531 37.8159 22.3072C38.4103 22.4614 52.5001 26.3361 56.7711 33.9313C56.9032 34.2396 60.7339 45.8857 49.4181 52.4683C49.308 52.5343 49.1979 52.5784 49.0878 52.6004C48.9997 52.6004 48.7577 52.6664 48.4054 52.6664L48.4272 52.6004Z" fill="#141414"/>
<path d="M44.9927 44.1436C44.7505 44.1436 44.5302 44.0776 44.3321 43.9235C38.2559 39.2783 33.0384 38.5077 32.9944 38.4857C32.4 38.3977 31.9816 37.8473 32.0476 37.2529C32.1357 36.6585 32.6862 36.2181 33.2806 36.3062C33.5228 36.3282 39.0927 37.1427 45.6532 42.1622C46.1376 42.5365 46.2256 43.219 45.8513 43.7033C45.6311 43.9895 45.3009 44.1436 44.9706 44.1436H44.9927Z" fill="#141414"/>
<path d="M33.1925 58.5879C32.6642 58.5879 32.1798 58.2136 32.0697 57.6853C31.9597 57.0909 32.3119 56.5405 32.9063 56.4304C36.1206 55.946 38.4981 53.084 38.5201 49.7597C38.5201 47.7563 38.4102 46.0391 38.4102 46.0171C38.3661 45.4007 38.8284 44.8944 39.4228 44.8283C40.0172 44.7623 40.5456 45.2466 40.6117 45.841C40.6117 45.907 40.7436 47.6683 40.7216 49.7818C40.6776 54.1628 37.5074 57.9495 33.3465 58.5879C33.2805 58.5879 33.2365 58.5879 33.1705 58.5879H33.1925Z" fill="#141414"/>
<path d="M52.214 18.9801C51.9719 18.9801 51.7075 18.892 51.5094 18.7159C51.0471 18.3196 50.9812 17.6372 51.3774 17.1529C53.623 14.511 56.661 12.9919 56.7931 12.9259C57.3435 12.6617 58.0041 12.8819 58.2683 13.4323C58.5324 13.9826 58.3123 14.6431 57.762 14.9072C57.7399 14.9072 54.988 16.2942 53.0506 18.5838C52.8305 18.848 52.5223 18.9801 52.214 18.9801Z" fill="#141414"/>
<path d="M85.4571 26.9717C85.2149 30.0978 83.7619 32.9598 81.3843 34.9632C79.9973 36.13 78.4122 36.9446 76.717 37.3409C75.8584 37.561 74.9777 37.6711 74.0971 37.6711C73.7888 37.6711 73.4808 37.6491 73.1726 37.6271C69.3859 37.3189 66.0835 35.1393 64.2563 31.9031C63.7059 30.9564 63.2875 29.8997 63.0233 28.799C62.8912 28.2045 63.2434 27.6101 63.8378 27.456C64.4322 27.3019 65.0269 27.6982 65.159 28.2705C65.181 28.3366 65.181 28.3807 65.203 28.4467C66.2157 32.3214 69.4519 35.1173 73.3486 35.4255C75.7483 35.6237 78.1039 34.8752 79.9532 33.29C81.8906 31.6609 83.0574 29.3493 83.2776 26.7956C83.6738 21.8861 80.2394 17.483 75.5722 16.7345C75.4181 16.7125 75.2641 16.6905 75.1099 16.6685C74.4935 16.6245 74.0531 16.074 74.1191 15.4576C74.1851 14.8632 74.6916 14.4229 75.33 14.489C75.9465 14.555 76.5408 14.6651 77.1132 14.8192C82.2868 16.2502 85.9414 21.3577 85.4571 26.9717Z" fill="#141414"/>
<path d="M63.816 27.0381C63.1996 27.0381 62.7153 26.5538 62.7153 25.9374C62.7153 25.6512 62.715 25.365 62.7591 25.0788C62.9792 22.3269 64.1901 19.729 66.1275 17.7697C66.5678 17.3294 67.2502 17.3294 67.6905 17.7697C68.1308 18.21 68.1308 18.8924 67.6905 19.3328C66.1054 20.9179 65.1367 23.0314 64.9606 25.2769C64.9386 25.4971 64.9168 25.7172 64.9168 25.9153C64.9168 26.5318 64.4325 27.0161 63.816 27.0161V27.0381Z" fill="#141414"/>
<path d="M74.1191 21.5547C74.8456 22.3032 74.9557 24.0645 76.3427 24.3947C77.3995 24.813 79.2269 24.3946 78.4123 25.3853C77.8179 25.9577 76.651 26.7723 76.695 27.8951C76.673 28.8638 77.2013 29.9645 76.8711 30.1847C76.4308 30.4929 74.9997 28.9518 73.7448 29.2601C72.9302 29.3481 72.1378 30.0966 71.3893 30.2287C71.037 30.2287 71.147 29.6123 71.3231 28.8858C71.4993 28.1372 71.4993 27.3447 71.0369 26.7283C70.7728 26.3981 70.4427 26.0678 70.1345 25.8036C68.9237 24.8129 69.7161 24.7249 71.1471 24.6148C71.8296 24.5267 72.4461 24.2405 72.8423 23.7121C73.3487 23.1397 73.4809 22.061 74.0092 21.5987H74.1191V21.5547Z" fill="#141414"/>
</svg>
