<svg width="83" height="108" viewBox="0 0 83 108" fill="none" xmlns="http://www.w3.org/2000/svg">
<path d="M81.7164 75.4646C83.3542 78.6657 80.0289 83.9761 73.5522 89.4106C72.8326 90.031 72.0883 90.6514 71.2942 91.2469C70.7731 91.6191 70.2766 91.9914 69.7802 92.3885C66.3806 94.87 62.4102 97.3018 58.0428 99.5104C53.2286 101.992 48.489 103.878 44.1464 105.218C43.4019 105.441 42.6823 105.64 41.9875 105.813C41.7642 105.888 41.5159 105.962 41.2926 106.012C32.8555 108.146 26.3789 107.799 24.6915 104.523C22.9792 101.099 26.8008 95.3414 34.0219 89.5595C34.3942 89.2369 34.7911 88.9639 35.1385 88.691C35.213 88.6413 35.2873 88.5917 35.3618 88.5421C35.1632 87.9962 34.9647 87.4502 34.7662 86.9043C29.5054 72.7597 25.0389 68.1689 24.9892 68.1441L11.9365 57.697C7.91644 54.4462 5.6335 49.4336 5.7824 44.2969L6.20406 31.1697C6.25369 29.5815 5.98078 27.9934 5.33559 26.4797C4.88892 25.363 4.21882 24.2959 3.3751 23.3281C2.33287 22.1122 2.18425 20.3503 3.02796 19.0103C4.11982 17.2733 5.807 16.0821 7.74258 15.6851L5.7824 13.1788C3.57385 10.3995 2.01038 7.04942 1.31556 3.55049L0.893597 1.46604C0.819152 1.04418 0.968127 0.597508 1.29072 0.299727C1.63813 0.0019464 2.10962 -0.0724897 2.53148 0.0764007L5.85661 1.26755C7.76737 1.93756 9.52928 2.85573 11.1671 3.99722C11.7378 3.10388 12.5072 2.40899 13.4253 1.91269C15.6835 0.746383 18.6365 1.2675 20.5969 3.22789L21.3909 4.04683C22.1849 4.84091 23.1777 5.33718 24.2943 5.48607C26.8255 5.85829 31.1931 6.47869 34.3694 6.8261C36.1313 7.02462 37.6696 8.04208 38.4885 9.58061C38.96 10.3995 39.5558 11.5906 40.2754 13.2284C40.9454 13.3773 41.9876 13.6254 43.0547 14.0969C44.1714 14.5932 45.139 15.4618 45.7346 16.5536C46.4294 17.7944 47.0995 18.9358 47.7199 19.9781C49.1096 20.8962 54.9409 24.8667 58.6383 29.4327C60.1768 31.3682 61.1447 33.676 61.4673 36.1575C61.8643 39.5076 62.063 45.5873 60.6733 55.7118C60.4252 57.6474 60.5739 59.6325 61.1695 61.5681C61.9139 64.0496 63.2292 67.9456 65.2144 72.3379C65.4377 72.8342 65.6611 73.3057 65.8844 73.7772C73.9493 71.8168 80.0786 72.2386 81.7164 75.4646Z" fill="#94C7FF"/>
<path d="M73.5522 89.4054C72.8325 90.0257 72.0883 90.6461 71.2942 91.2416C70.7731 91.6139 70.2765 91.9861 69.7802 92.3832C66.3806 94.8647 62.4102 97.2966 58.0428 99.5051C53.2286 101.987 48.489 103.873 44.1464 105.213C43.4019 105.436 42.6823 105.634 41.9875 105.808C41.7641 105.883 41.5159 105.957 41.2926 106.007C32.8555 108.141 26.3789 107.793 24.6915 104.518C22.9792 101.093 26.8008 95.3361 34.0219 89.5542C34.3942 89.2316 34.7911 88.9587 35.1385 88.6857C35.2129 88.6361 35.2873 88.5864 35.3617 88.5368C35.6843 88.2638 36.0319 88.0157 36.4041 87.7675C38.0667 92.3583 39.779 97.8921 41.4665 104.567C42.1861 104.394 42.8809 104.17 43.6254 103.947C47.968 102.632 52.7076 100.721 57.5466 98.2643C61.8892 96.031 65.8595 93.5991 69.2592 91.1176C69.7555 90.7454 70.2766 90.3731 70.7729 90.0009C71.567 89.3805 72.3115 88.785 73.0311 88.1398C69.4826 83.5242 66.7529 78.586 64.6685 74.0945C65.0903 73.9952 65.4874 73.8712 65.8844 73.7719C73.9493 71.8115 80.0786 72.2333 81.7164 75.4593C83.3542 78.6604 80.0289 83.9709 73.5522 89.4054Z" fill="#141414"/>
<path d="M73.8499 89.0855C73.1054 89.7307 72.3363 90.3511 71.5174 90.9963L69.9789 92.1129C66.4055 94.7433 62.4102 97.1752 58.0924 99.3589C53.3527 101.791 48.6132 103.726 43.9976 105.141C43.2283 105.364 42.5087 105.587 41.789 105.761C41.6898 105.786 41.5657 105.811 41.4664 105.811C41.2431 105.811 41.0446 105.736 40.846 105.637C40.5483 105.463 40.3498 105.19 40.2753 104.868C38.7368 98.8626 37.0739 93.3785 35.3617 88.5395C35.1632 87.9936 34.9647 87.4477 34.7662 86.9017C29.5054 72.7571 25.0388 68.1664 24.9892 68.1415L11.9364 57.6944C7.91639 54.4437 5.63345 49.431 5.78234 44.2943L6.204 31.1671C6.25363 29.5789 5.98073 27.9908 5.33553 26.4771C4.88886 25.3604 4.21876 24.2933 3.37505 23.3255C2.33281 22.1096 2.18419 20.3478 3.0279 19.0077C4.11977 17.2707 5.80695 16.0796 7.74252 15.6825C7.91623 15.6329 8.09014 15.6081 8.26384 15.5833C9.15719 15.4592 10.0504 15.5089 10.9189 15.7074C12.1349 15.9803 13.2763 16.5759 14.2441 17.4444L17.5198 20.447C19.1824 21.9607 20.3982 23.7971 21.1179 25.8319C21.3908 26.5267 21.5893 27.2712 21.7134 28.0156L22.979 34.8398C22.979 34.8398 23.0038 34.939 23.0038 34.9887C23.0287 35.609 22.607 36.1549 21.9618 36.279C21.3166 36.4031 20.6464 35.9564 20.5223 35.2864L19.7036 30.7205C19.6539 30.5964 19.629 30.4723 19.629 30.3234L19.2816 28.4623C18.8349 26.1048 17.6686 23.9459 15.8571 22.2585L12.5568 19.2559C11.9116 18.6604 11.0926 18.2633 10.2489 18.0896H10.224C10.224 18.0896 10.0007 18.0399 9.90142 18.0399C9.47957 17.9903 9.03315 17.9903 8.61129 18.0399C7.17202 18.2384 5.93125 19.0574 5.1868 20.2733C4.86421 20.7448 4.91361 21.3155 5.26102 21.7126C6.27843 22.8789 7.07272 24.1693 7.64347 25.5341C8.38792 27.3704 8.75995 29.306 8.68551 31.2416L8.26384 44.3687C8.11495 48.7362 10.0753 53.0044 13.4998 55.7589L26.6271 66.2804C26.9248 66.5534 31.59 71.2683 37.0989 86.0333C38.9601 91.0211 40.7219 96.7285 42.3597 103.032C42.6575 102.957 42.9553 102.858 43.2779 102.759C47.7446 101.394 52.3602 99.5078 56.9758 97.1504C61.1696 95.0163 65.0653 92.6589 68.5146 90.1277L70.0286 89.011C70.4753 88.6636 70.9217 88.3162 71.3435 87.9688C68.192 83.6758 65.3631 78.7872 62.9312 73.3527C60.9212 68.8364 59.5814 64.8412 58.7873 62.2852C58.0925 60.0022 57.9188 57.6696 58.2166 55.3618C59.5566 45.5102 59.3827 39.6539 58.9857 36.4527C58.7375 34.4427 57.9437 32.5567 56.7029 30.9934C55.0899 28.9834 53.0054 27.0975 51.0947 25.5341C48.4146 23.3752 46.1316 21.9111 46.1068 21.8863C45.9579 21.787 45.809 21.6381 45.7097 21.4893C45.7097 21.4644 45.6848 21.4148 45.6352 21.3652C45.4615 20.993 45.4615 20.5463 45.7097 20.1741C46.0819 19.5785 46.851 19.4048 47.4218 19.777C47.4218 19.8018 47.5462 19.8762 47.7199 19.9755C49.1095 20.8937 54.9408 24.8641 58.6382 29.4301C60.1768 31.3657 61.1446 33.6735 61.4672 36.155C61.8642 39.505 62.0629 45.5847 60.6732 55.7093C60.4251 57.6448 60.5739 59.63 61.1694 61.5656C61.9139 64.0471 63.2291 67.943 65.2143 72.3353C65.4376 72.8316 65.661 73.3031 65.8843 73.7746C68.2418 78.8617 70.9715 83.4277 73.9989 87.3981C74.396 87.9192 74.3214 88.6636 73.8499 89.0855Z" fill="#141414"/>
<path d="M44.6426 31.2664C44.6426 31.2664 44.444 31.316 44.3448 31.316C43.7989 31.316 43.3026 30.919 43.1537 30.3731C41.367 23.1271 39.63 18.164 38.2652 14.8636C38.2404 14.814 38.2155 14.7644 38.1907 14.7148C37.4462 12.9033 36.8011 11.6377 36.3296 10.7692C35.8829 9.95027 35.0391 9.40435 34.0962 9.30509C30.895 8.93286 26.5028 8.31251 23.922 7.94029C22.2842 7.71695 20.8202 6.97251 19.6291 5.78139L18.8351 4.98729C17.644 3.79617 15.8819 3.44874 14.5667 4.11875C13.9215 4.46616 13.4004 4.98726 13.0282 5.65727C12.4078 6.79876 12.4576 8.31252 13.2021 9.57809C14.815 12.3326 16.4527 14.1441 17.7431 14.5411C18.9591 14.9133 20.7459 15.6081 22.5326 16.3774C22.5574 16.4022 22.6068 16.4022 22.6316 16.4022C22.7061 16.427 22.7807 16.4518 22.8552 16.5014C24.4681 17.1714 26.0563 17.8663 27.1481 18.3626C28.0166 18.7348 28.6122 18.983 28.6866 19.0326C29.307 19.3304 29.58 20.0748 29.307 20.6952C29.1333 21.0178 28.8602 21.266 28.5376 21.3404C28.2646 21.4397 27.9421 21.4397 27.6443 21.2908C27.6443 21.2908 27.4459 21.2163 27.0984 21.0426C26.7758 20.9186 26.3043 20.6952 25.7583 20.4719C24.6168 19.9507 23.0784 19.2808 21.5647 18.6356C19.8525 17.9408 18.1403 17.2707 16.9988 16.8985C15.0633 16.2781 13.0532 14.2433 11.068 10.8188C10.2739 9.4292 9.97592 7.84102 10.2241 6.37693C10.3233 5.70692 10.5219 5.06168 10.8445 4.46612C10.9437 4.29241 11.043 4.14359 11.1671 3.9947C11.7378 3.10136 12.5072 2.40647 13.4253 1.91017C15.6835 0.743862 18.6365 1.26498 20.5969 3.22537L21.3909 4.0443C22.1849 4.83839 23.1776 5.33465 24.2943 5.48354C26.8255 5.85577 31.1931 6.47617 34.3694 6.82358C36.1313 7.0221 37.6696 8.03956 38.4885 9.57809C38.96 10.397 39.5557 11.5881 40.2754 13.2259C40.6228 14.0696 41.0197 15.0374 41.4168 16.1292C42.6575 19.4296 44.0966 23.8715 45.5607 29.7775C45.7344 30.4227 45.3126 31.1175 44.6426 31.2664Z" fill="#141414"/>
<path d="M27.6193 24.1699C27.0486 24.1699 26.5275 23.7729 26.4034 23.1774C25.9567 20.9192 25.6343 19.9514 25.6095 19.9514C25.3861 19.3062 25.7334 18.6114 26.3786 18.3881C27.0238 18.1647 27.7186 18.5121 27.9419 19.1573C27.9419 19.207 28.3141 20.2492 28.8104 22.7059C28.9345 23.3759 28.5129 24.021 27.8429 24.1699C27.7684 24.1699 27.6689 24.1699 27.5945 24.1699H27.6193Z" fill="#141414"/>
<path d="M53.4767 30.3248C53.2286 30.6474 52.8811 30.8211 52.5089 30.8211C52.2608 30.8211 52.0125 30.7466 51.7892 30.5729C51.4418 30.3 50.4493 29.6051 45.7096 21.4906C45.7096 21.4658 45.6847 21.4162 45.6351 21.3666C45.0147 20.2995 44.3448 19.1084 43.5756 17.7683C43.2281 17.148 42.6822 16.6516 42.037 16.3539C41.8385 16.2546 41.6152 16.1802 41.4167 16.1305C40.2752 15.7087 39.2577 15.5846 39.2329 15.5846C38.8111 15.5102 38.4388 15.2372 38.2651 14.8649C38.2403 14.8153 38.2154 14.7657 38.1906 14.7161C38.1906 14.5672 38.1409 14.3687 38.1906 14.195C38.265 13.525 38.9103 13.0287 39.5555 13.1031C39.5803 13.1031 39.8531 13.1528 40.2998 13.2272C40.9698 13.3761 42.012 13.6242 43.0791 14.0957C44.1957 14.592 45.1637 15.4606 45.7593 16.5524C46.4541 17.7932 47.1239 18.9346 47.7443 19.9768C49.1091 22.3095 50.2261 24.1706 51.1194 25.5355C52.2609 27.347 53.0054 28.3643 53.2783 28.5877C53.8243 29.0095 53.9234 29.7788 53.5016 30.3248H53.4767Z" fill="#141414"/>
<path d="M12.5569 6.62566C12.135 7.17159 11.3656 7.246 10.8196 6.82415L10.2241 6.3775C8.66074 5.21119 6.92377 4.29304 5.03782 3.59822L3.77223 3.15149C4.39261 6.22856 5.75735 9.18159 7.71774 11.6383L10.919 15.708L11.2167 16.0802C11.6386 16.6013 11.5394 17.3953 10.9935 17.8172C10.7702 17.9909 10.5219 18.0902 10.2489 18.0902H10.2241C10.2241 18.0902 10.0007 18.0405 9.90148 18.0405C9.65333 17.9661 9.43027 17.8172 9.25657 17.6187L7.74258 15.6831L5.7824 13.1768C3.57385 10.3975 2.01038 7.04747 1.31556 3.54854L0.893597 1.46409C0.819152 1.04223 0.968127 0.595555 1.29072 0.297774C1.63813 -6.72987e-06 2.10962 -0.0744428 2.53148 0.0744475L5.85661 1.2656C7.76737 1.9356 9.52928 2.85378 11.1671 3.99527C11.5641 4.26824 11.9614 4.56598 12.3584 4.88858C12.9044 5.31043 13.0035 6.10454 12.5569 6.62566Z" fill="#141414"/>
<path d="M45.9578 44.8895C45.6104 44.8895 45.2878 44.7654 45.0396 44.4925L21.366 18.4366C20.8945 17.9403 20.9442 17.1463 21.4405 16.6748C21.9616 16.2281 22.7311 16.2529 23.2026 16.7492L46.8759 42.8051C47.3474 43.3014 47.2977 44.0954 46.8014 44.5669C46.5533 44.7902 46.2556 44.8895 45.9578 44.8895Z" fill="#141414"/>
<path d="M36.9996 51.9368C36.6274 51.9368 36.2799 51.7631 36.0318 51.4653L19.902 31.0425C19.7283 30.844 19.6539 30.571 19.6291 30.298C19.5546 27.891 21.1429 23.1513 27.5452 22.3076C28.24 22.2083 28.8354 22.7047 28.9347 23.3747C29.034 24.0447 28.5378 24.6899 27.8678 24.7643C22.9793 25.3847 22.2346 28.6603 22.1106 29.8514L37.9426 49.902C38.3644 50.4479 38.2653 51.2172 37.7442 51.639C37.5208 51.8127 37.2477 51.912 36.9748 51.912L36.9996 51.9368Z" fill="#141414"/>
<path d="M39.2082 52.9056C37.9179 52.9056 36.826 52.4341 36.1312 51.5904C34.4934 49.5804 35.5604 46.0566 38.5879 43.5999C39.9279 42.5081 41.4913 41.7636 42.9553 41.5651C44.618 41.3169 46.0571 41.7636 46.9009 42.8058C48.5386 44.8159 47.4716 48.3148 44.4442 50.7963C43.1042 51.8882 41.5408 52.6326 40.0767 52.8312C39.7789 52.8808 39.4812 52.9056 39.2082 52.9056ZM43.799 43.9722C43.6253 43.9722 43.4517 43.9721 43.278 44.0218C42.2605 44.1706 41.119 44.7166 40.1264 45.5355C38.1412 47.1485 37.3968 49.233 38.042 50.027C38.315 50.3744 38.9103 50.4985 39.7044 50.3992C40.7218 50.2504 41.8634 49.7045 42.856 48.8856C44.8412 47.2726 45.5856 45.1881 44.9652 44.394C44.7419 44.1211 44.3449 43.997 43.8238 43.997L43.799 43.9722Z" fill="#141414"/>
<path d="M40.3248 45.1134C39.9774 45.1134 39.63 44.9645 39.3818 44.6916L31.5901 35.6341C31.1435 35.113 31.1929 34.3436 31.714 33.8721C32.2351 33.4255 33.0291 33.4751 33.4758 33.9963L41.2678 43.0537C41.7144 43.5749 41.665 44.3441 41.1439 44.8156C40.9205 45.0141 40.6226 45.1134 40.3248 45.1134Z" fill="#141414"/>
</svg>
